<svg width="80" height="30" viewBox="0 0 80 30" fill="none" xmlns="http://www.w3.org/2000/svg">
<g clip-path="url(#clip0_1215_1328)">
<path d="M71.01 29.56C69.88 29.56 68.79 29.41 67.74 29.11C66.55 28.77 65.53 28.26 64.64 27.67C61.29 29.17 56.94 29.53 54.21 28.49C52.63 27.89 52 26.96 51.74 26.29C51.33 25.21 51.56 23.86 52.38 22.49C53.29 20.97 55.19 19.09 57.55 18.78C60.27 18.42 62.04 20.34 63.61 22.03C64.05 22.51 64.5 22.99 64.98 23.45C65.72 22.91 66.4 22.24 67.01 21.47C70.41 17.17 69.31 13.02 68.35 10.94C66.45 6.81 62.14 3.91 57.61 3.73C56.05 3.66 54.34 4 52.55 4.73C51.05 5.34 49.76 6.15 48.66 7.06C50.73 10.42 51.65 14.66 50.95 18.96C50.12 24.1 47.45 29.28 43.35 29.28C42.65 29.28 41.62 29.06 40.69 28C38.83 25.88 38.47 21.51 38.92 18.12C38.97 17.77 39.83 11.78 44.03 6.78C42.87 5.61 41.48 4.71 39.91 4.18C37.55 3.39 35.06 3.71 32.51 5.13C31.32 5.79 30.15 6.68 29.05 7.74C30.14 10.78 30.52 14.62 30.14 19.1C30.14 19.18 30.12 19.26 30.1 19.34C28.91 24.68 27.87 29.29 22.94 29.29C21.7 29.29 20.63 28.77 19.86 27.79C18.11 25.57 18.32 21.28 19.04 18.28C19.99 14.3 22.15 10.28 24.89 7.07C24.58 6.55 24.24 6.08 23.87 5.68C22.53 4.22 20.77 3.51 18.51 3.51C12.31 3.51 7.78 13.58 6.56 17.46C6.2 18.45 5.87 19.34 5.6 20.09C5.19 22.56 4.47 25.2 3.35 27.96C3.01 28.79 2.09 29.23 1.22 28.97C0.36 28.71 -0.17 27.83 0.01 26.95C0.39 25.05 0.88 23.15 1.46 21.29C1.53 21.07 1.8 20.31 2.16 19.3C3.63 10.16 0.59 3.63 0.56 3.55C0.14 2.68 0.51 1.64 1.38 1.22C2.25 0.8 3.29 1.17 3.71 2.03C3.83 2.27 5.29 5.37 5.87 10.27C8.32 5.62 12.54 0 18.53 0C21.78 0 24.45 1.11 26.46 3.3C26.8 3.67 27.12 4.07 27.42 4.5C28.51 3.54 29.65 2.72 30.82 2.07C34.22 0.18 37.75 -0.23 41.03 0.86C43.13 1.56 44.98 2.76 46.51 4.31C47.84 3.21 49.4 2.24 51.23 1.49C53.49 0.57 55.69 0.14 57.75 0.23C63.65 0.47 69.06 4.1 71.53 9.47C73.73 14.26 73.08 19.42 69.76 23.63C69.22 24.32 68.63 24.94 68 25.49C68.23 25.58 68.46 25.66 68.71 25.73C71 26.39 73.66 26.01 76.62 24.61C77.49 24.2 78.53 24.57 78.95 25.44C79.36 26.31 78.99 27.36 78.12 27.77C75.63 28.95 73.25 29.55 71.01 29.55V29.56ZM46.16 9.7C43.09 13.74 42.44 18.3 42.4 18.59C41.89 22.36 42.8 25.45 43.45 25.81C44.79 25.79 46.78 22.97 47.51 18.41C48.01 15.29 47.48 12.23 46.16 9.7ZM26.33 10.92C24.53 13.4 23.13 16.28 22.46 19.08C21.82 21.76 21.89 24.69 22.62 25.61C22.73 25.75 22.81 25.78 22.96 25.78C24.71 25.78 25.38 24.52 26.69 18.69C26.93 15.74 26.8 13.12 26.33 10.92ZM55.06 25.04C55.79 25.61 58.7 25.92 61.66 25.06C61.45 24.84 61.25 24.62 61.05 24.41C59.58 22.82 58.86 22.14 58.01 22.25C56.59 22.43 55.19 24.29 55.06 25.04Z" fill="#FDFDFC"/>
</g>
<defs>
<clipPath id="clip0_1215_1328">
<rect width="79.12" height="29.56" fill="white"/>
</clipPath>
</defs>
</svg>
