<svg width="13" height="13" viewBox="0 0 13 13" fill="none" xmlns="http://www.w3.org/2000/svg">
<g clip-path="url(#clip0_1216_1349)">
<path d="M9.79504 10.004C8.36912 9.6951 7.46172 8.2902 7.78081 6.86538C8.08992 5.44055 9.4959 4.53385 10.9218 4.85269C12.3478 5.16157 13.2552 6.56647 12.9361 7.99129C12.627 9.41611 11.221 10.3228 9.79504 10.004Z" fill="#C98B45"/>
<path d="M10.0842 8.65876C9.3962 8.5093 8.96743 7.83177 9.117 7.14426C9.26657 6.45676 9.94463 6.02832 10.6227 6.17777C11.3107 6.32723 11.7395 7.00476 11.5899 7.6823C11.4404 8.36981 10.7623 8.79825 10.0743 8.64879" fill="#FDFDFC"/>
<path d="M5.87625 11.2993C5.2281 9.99404 5.76656 8.40979 7.07283 7.76214C8.3791 7.1145 9.96458 7.65255 10.6127 8.9578C11.2609 10.2631 10.7224 11.8473 9.41615 12.4949C8.10987 13.1426 6.5244 12.6046 5.87625 11.2993Z" fill="#C98B45"/>
<path d="M7.10274 10.6914C6.79362 10.0637 7.05288 9.29651 7.68109 8.98763C8.30929 8.67875 9.06714 8.93781 9.38623 9.56553C9.69534 10.1933 9.43608 10.9505 8.80788 11.2693C8.17967 11.5782 7.42183 11.3192 7.10274 10.6914Z" fill="#FDFDFC"/>
<path d="M2.41612 9.04747C3.03435 7.73224 4.60986 7.16431 5.9261 7.78207C7.24234 8.39982 7.81071 9.9741 7.19247 11.2893C6.57424 12.6045 4.99875 13.1725 3.68251 12.5547C2.36627 11.937 1.79788 10.3627 2.41612 9.04747Z" fill="#C98B45"/>
<path d="M3.66258 9.62531C3.96172 8.98763 4.71956 8.7186 5.34777 9.01752C5.98595 9.31643 6.25518 10.0737 5.95603 10.7014C5.65689 11.3391 4.89905 11.6081 4.27084 11.3092C3.63266 11.0103 3.36343 10.253 3.66258 9.62531Z" fill="#FDFDFC"/>
<path d="M2.02724 4.94228C3.4432 4.60351 4.86913 5.48033 5.20816 6.89519C5.54719 8.31005 4.66969 9.73487 3.25373 10.0736C1.83778 10.4124 0.411845 9.53559 0.0728135 8.12073C-0.266219 6.70587 0.611283 5.28104 2.02724 4.94228Z" fill="#C98B45"/>
<path d="M2.34633 6.26747C3.0244 6.10805 3.71244 6.52653 3.88196 7.20407C4.0415 7.88161 3.62269 8.56911 2.94463 8.7385C2.26657 8.89792 1.57854 8.47943 1.40902 7.8019C1.24948 7.12436 1.66827 6.43685 2.34633 6.26747Z" fill="#FDFDFC"/>
<path d="M4.98879 2.07265C6.13551 2.9694 6.34491 4.62339 5.44747 5.77919C4.55003 6.92503 2.89476 7.13427 1.73806 6.23752C0.591332 5.34078 0.381939 3.68679 1.27938 2.53099C2.17681 1.37519 3.83209 1.17591 4.98879 2.07265Z" fill="#C98B45"/>
<path d="M4.15118 3.14893C4.69961 3.57737 4.79931 4.37447 4.37054 4.93245C3.94176 5.48046 3.14404 5.5801 2.58564 5.15165C2.0372 4.72321 1.93749 3.9261 2.36626 3.36813C2.79504 2.82012 3.59277 2.72048 4.15118 3.14893Z" fill="#FDFDFC"/>
<path d="M9.08709 2.6008C9.10703 4.05552 7.93038 5.25117 6.47454 5.2711C5.0187 5.29103 3.82211 4.11531 3.81214 2.66059C3.7922 1.20588 4.96885 0.0102134 6.42469 0.000249628C7.88054 -0.019678 9.07712 1.15605 9.08709 2.61077" fill="#C98B45"/>
<path d="M7.72096 2.61084C7.72096 3.3083 7.16256 3.88621 6.46456 3.89617C5.76655 3.89617 5.18821 3.33819 5.17824 2.64073C5.17824 1.94326 5.73664 1.36536 6.43464 1.3554C7.13265 1.3554 7.71099 1.91337 7.72096 2.61084Z" fill="#FDFDFC"/>
<path d="M11.221 6.12799C10.0942 7.04466 8.42898 6.87528 7.5116 5.74937C6.59422 4.62346 6.76374 2.9595 7.89052 2.04283C9.0173 1.12616 10.6825 1.29554 11.5999 2.42145C12.5173 3.54736 12.3478 5.21132 11.221 6.12799Z" fill="#C98B45"/>
<path d="M10.3634 5.07175C9.815 5.51015 9.01727 5.43044 8.57852 4.8924C8.13978 4.34439 8.21956 3.54728 8.75802 3.10888C9.29648 2.67047 10.1042 2.75018 10.5429 3.28822C10.9817 3.83623 10.9019 4.63334 10.3634 5.07175Z" fill="#FDFDFC"/>
</g>
<defs>
<clipPath id="clip0_1216_1349">
<rect width="13" height="13" fill="white"/>
</clipPath>
</defs>
</svg>
