<svg width="100" height="105" viewBox="0 0 100 105" fill="none" xmlns="http://www.w3.org/2000/svg">
<g clip-path="url(#clip0_1238_1456)">
<path d="M19.3173 6.88C19.0273 5.47 18.3474 4.34 17.5974 3.81C17.9974 1.64 19.8974 0 22.1774 0C24.7574 0 26.8474 2.09 26.8474 4.67C26.8474 7.25 24.7574 9.34 22.1774 9.34C21.1574 9.34 20.2273 9.01 19.4573 8.46C19.4673 7.97 19.4273 7.44 19.3173 6.89V6.88Z" fill="#F8F5DE"/>
<path d="M27.5173 11.29C28.4373 10.18 28.8973 8.95 28.8373 8.03C30.7873 6.99 33.2474 7.45001 34.6774 9.23001C36.2874 11.25 35.9573 14.18 33.9373 15.79C31.9273 17.4 28.9873 17.07 27.3773 15.05C26.7473 14.26 26.4273 13.32 26.3773 12.38C26.7773 12.08 27.1573 11.72 27.5173 11.29Z" fill="#F8F5DE"/>
<path d="M29.5173 20.49C30.9573 20.52 32.2073 20.11 32.8873 19.49C34.9073 20.36 36.0973 22.58 35.5873 24.8C35.0173 27.31 32.5174 28.89 29.9974 28.31C27.4774 27.73 25.9074 25.24 26.4874 22.72C26.7174 21.73 27.2473 20.89 27.9573 20.27C28.4373 20.39 28.9673 20.47 29.5173 20.48V20.49Z" fill="#F8F5DE"/>
<path d="M23.3173 27.95C24.1973 29.09 25.2873 29.81 26.1973 29.96C26.7773 32.09 25.7874 34.39 23.7274 35.38C21.4074 36.5 18.6174 35.52 17.4974 33.2C16.3774 30.88 17.3574 28.09 19.6774 26.97C20.5974 26.53 21.5773 26.42 22.5073 26.59C22.7073 27.04 22.9773 27.5 23.3173 27.94V27.95Z" fill="#F8F5DE"/>
<path d="M12.2374 26.87C11.8874 28.27 12.0073 29.58 12.4573 30.38C11.1573 32.16 8.73738 32.82 6.67738 31.83C4.35738 30.71 3.37738 27.92 4.49738 25.6C5.61738 23.28 8.40736 22.3 10.7274 23.42C11.6474 23.86 12.3374 24.56 12.7874 25.39C12.5574 25.83 12.3674 26.33 12.2374 26.87Z" fill="#F8F5DE"/>
<path d="M9.64736 9.89C8.48736 9.31 7.31735 9.15 6.51735 9.38C5.21735 7.88 5.11736 5.62001 6.39736 4.01001C7.84736 2.19001 10.4874 1.89001 12.3074 3.34001C14.1274 4.79001 14.4274 7.43 12.9774 9.25C12.4074 9.97 11.6474 10.44 10.8274 10.67C10.4874 10.38 10.0873 10.11 9.63735 9.89H9.64736Z" fill="#F8F5DE"/>
<path d="M6.72734 18.88C5.54734 19.42 4.69731 20.24 4.37731 21.01C2.39731 21.09 0.567349 19.76 0.107349 17.75C-0.412651 15.49 1.00732 13.23 3.26732 12.71C5.52732 12.19 7.78736 13.61 8.30736 15.87C8.50736 16.76 8.40732 17.65 8.07732 18.43C7.63732 18.52 7.18734 18.66 6.72734 18.87V18.88Z" fill="#F8F5DE"/>
<path d="M19.3173 75.88C19.0273 74.47 18.3474 73.34 17.5974 72.81C17.9974 70.64 19.8974 69 22.1774 69C24.7574 69 26.8474 71.09 26.8474 73.67C26.8474 76.25 24.7574 78.34 22.1774 78.34C21.1574 78.34 20.2273 78.01 19.4573 77.46C19.4673 76.97 19.4273 76.44 19.3173 75.89V75.88Z" fill="#F8F5DE"/>
<path d="M27.5173 80.29C28.4373 79.18 28.8973 77.95 28.8373 77.03C30.7873 75.99 33.2474 76.45 34.6774 78.23C36.2874 80.25 35.9573 83.18 33.9373 84.79C31.9273 86.4 28.9873 86.07 27.3773 84.05C26.7473 83.26 26.4273 82.32 26.3773 81.38C26.7773 81.08 27.1573 80.72 27.5173 80.29Z" fill="#F8F5DE"/>
<path d="M29.5173 89.49C30.9573 89.52 32.2073 89.11 32.8873 88.49C34.9073 89.36 36.0973 91.58 35.5873 93.8C35.0173 96.31 32.5174 97.89 29.9974 97.31C27.4774 96.73 25.9074 94.24 26.4874 91.72C26.7174 90.73 27.2473 89.89 27.9573 89.27C28.4373 89.39 28.9673 89.47 29.5173 89.48V89.49Z" fill="#F8F5DE"/>
<path d="M23.3173 96.95C24.1973 98.09 25.2873 98.81 26.1973 98.96C26.7773 101.09 25.7874 103.39 23.7274 104.38C21.4074 105.5 18.6174 104.52 17.4974 102.2C16.3774 99.88 17.3574 97.09 19.6774 95.97C20.5974 95.53 21.5773 95.42 22.5073 95.59C22.7073 96.04 22.9773 96.5 23.3173 96.94V96.95Z" fill="#F8F5DE"/>
<path d="M12.2374 95.87C11.8874 97.27 12.0073 98.58 12.4573 99.38C11.1573 101.16 8.73738 101.82 6.67738 100.83C4.35738 99.71 3.37738 96.92 4.49738 94.6C5.61738 92.28 8.40736 91.3 10.7274 92.42C11.6474 92.86 12.3374 93.56 12.7874 94.39C12.5574 94.83 12.3674 95.33 12.2374 95.87Z" fill="#F8F5DE"/>
<path d="M9.64736 78.89C8.48736 78.31 7.31735 78.15 6.51735 78.38C5.21735 76.88 5.11736 74.62 6.39736 73.01C7.84736 71.19 10.4874 70.89 12.3074 72.34C14.1274 73.79 14.4274 76.43 12.9774 78.25C12.4074 78.97 11.6474 79.44 10.8274 79.67C10.4874 79.38 10.0873 79.11 9.63735 78.89H9.64736Z" fill="#F8F5DE"/>
<path d="M6.72734 87.89C5.54734 88.43 4.69731 89.25 4.37731 90.02C2.39731 90.1 0.567349 88.77 0.107349 86.76C-0.412651 84.5 1.00732 82.24 3.26732 81.72C5.52732 81.2 7.78736 82.62 8.30736 84.88C8.50736 85.77 8.40732 86.66 8.07732 87.44C7.63732 87.53 7.18734 87.67 6.72734 87.88V87.89Z" fill="#F8F5DE"/>
<path d="M83.3173 6.88C83.0273 5.47 82.3474 4.34 81.5974 3.81C81.9974 1.64 83.8973 0 86.1773 0C88.7573 0 90.8474 2.09 90.8474 4.67C90.8474 7.25 88.7573 9.34 86.1773 9.34C85.1573 9.34 84.2273 9.01 83.4573 8.46C83.4673 7.97 83.4273 7.44 83.3173 6.89V6.88Z" fill="#F8F5DE"/>
<path d="M91.5173 11.29C92.4373 10.18 92.8973 8.95 92.8373 8.03C94.7873 6.99 97.2473 7.45001 98.6773 9.23001C100.287 11.25 99.9573 14.18 97.9373 15.79C95.9273 17.4 92.9873 17.07 91.3773 15.05C90.7473 14.26 90.4273 13.32 90.3773 12.38C90.7773 12.08 91.1573 11.72 91.5173 11.29Z" fill="#F8F5DE"/>
<path d="M93.5173 20.49C94.9573 20.52 96.2073 20.11 96.8873 19.49C98.9073 20.36 100.097 22.58 99.5873 24.8C99.0173 27.31 96.5173 28.89 93.9973 28.31C91.4773 27.73 89.9073 25.24 90.4873 22.72C90.7173 21.73 91.2473 20.89 91.9573 20.27C92.4373 20.39 92.9673 20.47 93.5173 20.48V20.49Z" fill="#F8F5DE"/>
<path d="M87.3273 27.95C88.2073 29.09 89.2973 29.81 90.2073 29.96C90.7873 32.09 89.7973 34.39 87.7373 35.38C85.4173 36.5 82.6273 35.52 81.5073 33.2C80.3873 30.88 81.3673 28.09 83.6873 26.97C84.6073 26.53 85.5873 26.42 86.5173 26.59C86.7173 27.04 86.9873 27.5 87.3273 27.94V27.95Z" fill="#F8F5DE"/>
<path d="M76.2473 26.87C75.8973 28.27 76.0174 29.58 76.4674 30.38C75.1674 32.16 72.7473 32.82 70.6873 31.83C68.3673 30.71 67.3873 27.92 68.5073 25.6C69.6273 23.28 72.4173 22.3 74.7373 23.42C75.6573 23.86 76.3473 24.56 76.7973 25.39C76.5673 25.83 76.3773 26.33 76.2473 26.87Z" fill="#F8F5DE"/>
<path d="M73.6574 9.89C72.4974 9.31 71.3274 9.15 70.5274 9.38C69.2274 7.88 69.1274 5.62001 70.4074 4.01001C71.8574 2.19001 74.4973 1.89001 76.3173 3.34001C78.1373 4.79001 78.4373 7.43 76.9873 9.25C76.4173 9.97 75.6574 10.44 74.8374 10.67C74.4974 10.38 74.0974 10.11 73.6474 9.89H73.6574Z" fill="#F8F5DE"/>
<path d="M70.7273 18.88C69.5473 19.42 68.6973 20.24 68.3773 21.01C66.3973 21.09 64.5673 19.76 64.1073 17.75C63.5873 15.49 65.0073 13.23 67.2673 12.71C69.5273 12.19 71.7873 13.61 72.3073 15.87C72.5073 16.76 72.4073 17.65 72.0773 18.43C71.6373 18.52 71.1873 18.66 70.7273 18.87V18.88Z" fill="#F8F5DE"/>
<path d="M51.3173 41.2999C51.0273 39.8899 50.3474 38.7599 49.5974 38.2299C49.9974 36.0599 51.8973 34.4199 54.1773 34.4199C56.7573 34.4199 58.8474 36.5099 58.8474 39.0899C58.8474 41.6699 56.7573 43.7599 54.1773 43.7599C53.1573 43.7599 52.2273 43.4299 51.4573 42.8799C51.4673 42.3899 51.4273 41.8599 51.3173 41.3099V41.2999Z" fill="#FDFDFC"/>
<path d="M59.5173 45.7199C60.4373 44.6099 60.8973 43.3799 60.8373 42.4599C62.7873 41.4199 65.2473 41.8799 66.6773 43.6599C68.2873 45.6799 67.9573 48.6099 65.9373 50.2199C63.9273 51.8299 60.9873 51.4999 59.3773 49.4799C58.7473 48.6899 58.4273 47.7499 58.3773 46.8099C58.7773 46.5099 59.1573 46.1499 59.5173 45.7199Z" fill="#FDFDFC"/>
<path d="M61.5073 54.9199C62.9473 54.9499 64.1973 54.5399 64.8773 53.9199C66.8973 54.7899 68.0873 57.0099 67.5773 59.2299C67.0073 61.7399 64.5073 63.3199 61.9873 62.7399C59.4673 62.1599 57.8973 59.6699 58.4773 57.1499C58.7073 56.1599 59.2373 55.3199 59.9473 54.6999C60.4273 54.8199 60.9573 54.8999 61.5073 54.9099V54.9199Z" fill="#FDFDFC"/>
<path d="M55.3173 62.3699C56.1973 63.5099 57.2873 64.2299 58.1973 64.3799C58.7773 66.5099 57.7874 68.8099 55.7274 69.7999C53.4074 70.9199 50.6173 69.9399 49.4973 67.6199C48.3773 65.2999 49.3573 62.5099 51.6773 61.3899C52.5973 60.9499 53.5773 60.8399 54.5073 61.0099C54.7073 61.4599 54.9773 61.9199 55.3173 62.3599V62.3699Z" fill="#FDFDFC"/>
<path d="M44.2373 61.2999C43.8873 62.6999 44.0073 64.0099 44.4573 64.8099C43.1573 66.5899 40.7373 67.2499 38.6773 66.2599C36.3573 65.1399 35.3773 62.3499 36.4973 60.0299C37.6173 57.7099 40.4074 56.7299 42.7274 57.8499C43.6474 58.2899 44.3374 58.9899 44.7874 59.8199C44.5574 60.2599 44.3673 60.7599 44.2373 61.2999Z" fill="#FDFDFC"/>
<path d="M41.6474 44.3199C40.4874 43.7399 39.3174 43.5799 38.5174 43.8099C37.2174 42.3099 37.1174 40.0499 38.3974 38.4399C39.8474 36.6199 42.4873 36.3199 44.3073 37.7699C46.1273 39.2199 46.4274 41.8599 44.9774 43.6799C44.4074 44.3999 43.6474 44.8699 42.8274 45.0999C42.4874 44.8099 42.0873 44.5399 41.6373 44.3199H41.6474Z" fill="#FDFDFC"/>
<path d="M38.7273 53.3099C37.5473 53.8499 36.6973 54.6699 36.3773 55.4399C34.3973 55.5199 32.5673 54.1899 32.1073 52.1799C31.5873 49.9199 33.0073 47.6599 35.2673 47.1399C37.5273 46.6199 39.7873 48.0399 40.3073 50.2999C40.5073 51.1899 40.4073 52.0799 40.0773 52.8599C39.6373 52.9499 39.1873 53.0899 38.7273 53.2999V53.3099Z" fill="#FDFDFC"/>
<path d="M83.3173 75.88C83.0273 74.47 82.3474 73.34 81.5974 72.81C81.9974 70.64 83.8973 69 86.1773 69C88.7573 69 90.8474 71.09 90.8474 73.67C90.8474 76.25 88.7573 78.34 86.1773 78.34C85.1573 78.34 84.2273 78.01 83.4573 77.46C83.4673 76.97 83.4273 76.44 83.3173 75.89V75.88Z" fill="#F8F5DE"/>
<path d="M91.5173 80.29C92.4373 79.18 92.8973 77.95 92.8373 77.03C94.7873 75.99 97.2473 76.45 98.6773 78.23C100.287 80.25 99.9573 83.18 97.9373 84.79C95.9273 86.4 92.9873 86.07 91.3773 84.05C90.7473 83.26 90.4273 82.32 90.3773 81.38C90.7773 81.08 91.1573 80.72 91.5173 80.29Z" fill="#F8F5DE"/>
<path d="M93.5173 89.49C94.9573 89.52 96.2073 89.11 96.8873 88.49C98.9073 89.36 100.097 91.58 99.5873 93.8C99.0173 96.31 96.5173 97.89 93.9973 97.31C91.4773 96.73 89.9073 94.24 90.4873 91.72C90.7173 90.73 91.2473 89.89 91.9573 89.27C92.4373 89.39 92.9673 89.47 93.5173 89.48V89.49Z" fill="#F8F5DE"/>
<path d="M87.3273 96.95C88.2073 98.09 89.2973 98.81 90.2073 98.96C90.7873 101.09 89.7973 103.39 87.7373 104.38C85.4173 105.5 82.6273 104.52 81.5073 102.2C80.3873 99.88 81.3673 97.09 83.6873 95.97C84.6073 95.53 85.5873 95.42 86.5173 95.59C86.7173 96.04 86.9873 96.5 87.3273 96.94V96.95Z" fill="#F8F5DE"/>
<path d="M76.2473 95.87C75.8973 97.27 76.0174 98.58 76.4674 99.38C75.1674 101.16 72.7473 101.82 70.6873 100.83C68.3673 99.71 67.3873 96.92 68.5073 94.6C69.6273 92.28 72.4173 91.3 74.7373 92.42C75.6573 92.86 76.3473 93.56 76.7973 94.39C76.5673 94.83 76.3773 95.33 76.2473 95.87Z" fill="#F8F5DE"/>
<path d="M73.6574 78.89C72.4974 78.31 71.3274 78.15 70.5274 78.38C69.2274 76.88 69.1274 74.62 70.4074 73.01C71.8574 71.19 74.4973 70.89 76.3173 72.34C78.1373 73.79 78.4373 76.43 76.9873 78.25C76.4173 78.97 75.6574 79.44 74.8374 79.67C74.4974 79.38 74.0974 79.11 73.6474 78.89H73.6574Z" fill="#F8F5DE"/>
<path d="M70.7273 87.89C69.5473 88.43 68.6973 89.25 68.3773 90.02C66.3973 90.1 64.5673 88.77 64.1073 86.76C63.5873 84.5 65.0073 82.24 67.2673 81.72C69.5273 81.2 71.7873 82.62 72.3073 84.88C72.5073 85.77 72.4073 86.66 72.0773 87.44C71.6373 87.53 71.1873 87.67 70.7273 87.88V87.89Z" fill="#F8F5DE"/>
</g>
<defs>
<clipPath id="clip0_1238_1456">
<rect width="100" height="105" fill="white"/>
</clipPath>
</defs>
</svg>
