<svg width="151" height="102" viewBox="0 0 151 102" fill="none" xmlns="http://www.w3.org/2000/svg">
<g clip-path="url(#clip0_1238_1452)">
<path d="M125.893 76.6766C127.874 76.6124 136.238 76.1354 143.237 69.3941C150.684 62.2218 151.161 53.1875 151.216 51.3623C149.437 51.3715 140.687 51.6191 133.524 58.6447C126.131 65.8905 125.902 74.9798 125.893 76.6766Z" fill="#FDFDFC"/>
<path d="M126.14 76.6766C124.159 76.6124 115.794 76.1354 108.796 69.3941C101.349 62.2218 100.872 53.1875 100.817 51.3623C102.596 51.3715 111.346 51.6191 118.509 58.6447C125.902 65.8905 126.131 74.9798 126.14 76.6766Z" fill="#FDFDFC"/>
<path d="M125.893 102C127.874 101.936 136.238 101.459 143.237 94.7176C150.684 87.5452 151.161 78.5109 151.216 76.6857C149.437 76.6949 140.687 76.9425 133.524 83.9682C126.131 91.2139 125.902 100.303 125.893 102Z" fill="#F8F5DE"/>
<path d="M126.14 102C124.159 101.936 115.794 101.459 108.796 94.7176C101.349 87.5452 100.872 78.5109 100.817 76.6857C102.596 76.6949 111.346 76.9425 118.509 83.9682C125.902 91.2139 126.131 100.303 126.14 102Z" fill="#F8F5DE"/>
<path d="M75.4934 25.3143C77.4745 25.2501 85.8392 24.7731 92.8373 18.0318C100.285 10.8595 100.762 1.8252 100.817 0C99.0375 0.00917184 90.2876 0.25681 83.1244 7.28244C75.7319 14.5282 75.5026 23.6175 75.4934 25.3143Z" fill="#FDFDFC"/>
<path d="M75.7319 25.3143C73.7507 25.2501 65.386 24.7731 58.3879 18.0318C50.9404 10.8595 50.4635 1.8252 50.4084 0C52.1878 0.00917184 60.9377 0.25681 68.1009 7.28244C75.4934 14.5282 75.7227 23.6175 75.7319 25.3143Z" fill="#FDFDFC"/>
<path d="M75.4934 50.6377C77.4745 50.5735 85.8392 50.0966 92.8373 43.3553C100.285 36.1829 100.762 27.1486 100.817 25.3234C99.0375 25.3326 90.2876 25.5802 83.1244 32.6059C75.7319 39.8516 75.5026 48.9409 75.4934 50.6377Z" fill="#F8F5DE"/>
<path d="M75.7319 50.6377C73.7507 50.5735 65.386 50.0966 58.3879 43.3553C50.9404 36.1829 50.4635 27.1486 50.4084 25.3234C52.1878 25.3326 60.9377 25.5802 68.1009 32.6059C75.4934 39.8516 75.7227 48.9409 75.7319 50.6377Z" fill="#F8F5DE"/>
<path d="M25.085 76.6766C27.0661 76.6124 35.4308 76.1354 42.4289 69.3941C49.8765 62.2218 50.3534 53.1875 50.4084 51.3623C48.6291 51.3715 39.8791 51.6191 32.7159 58.6447C25.3234 65.8905 25.0941 74.9798 25.085 76.6766Z" fill="#FDFDFC"/>
<path d="M25.3234 76.6766C23.3423 76.6124 14.9776 76.1354 7.9795 69.3941C0.531968 62.2218 0.0642016 53.1875 0.00917053 51.3623C1.78851 51.3715 10.5384 51.6191 17.7016 58.6447C25.0941 65.8905 25.3234 74.9798 25.3326 76.6766H25.3234Z" fill="#FDFDFC"/>
<path d="M25.085 102C27.0661 101.936 35.4308 101.459 42.4289 94.7176C49.8765 87.5452 50.3534 78.5109 50.4084 76.6857C48.6291 76.6949 39.8791 76.9425 32.7159 83.9682C25.3234 91.2139 25.0941 100.303 25.085 102Z" fill="#F8F5DE"/>
<path d="M25.3234 102C23.3423 101.936 14.9776 101.459 7.9795 94.7176C0.531971 87.5452 0.055031 78.5109 0 76.6857C1.77934 76.6949 10.5293 76.9425 17.6925 83.9682C25.085 91.2139 25.3143 100.303 25.3234 102Z" fill="#F8F5DE"/>
</g>
<defs>
<clipPath id="clip0_1238_1452">
<rect width="151" height="102" fill="white"/>
</clipPath>
</defs>
</svg>
