<svg width="112" height="102" viewBox="0 0 112 102" fill="none" xmlns="http://www.w3.org/2000/svg">
<g clip-path="url(#clip0_1238_1454)">
<path d="M68.9527 32.8C69.4827 32.72 70.0226 32.66 70.5526 32.55C75.4426 31.5 78.8526 28.65 80.7726 24.03C81.6826 21.85 81.9126 19.57 81.6226 17.22C81.6226 17.15 81.6226 17.07 81.6126 17C81.6126 16.94 81.5926 16.88 81.5826 16.75C81.4526 16.85 81.3527 16.92 81.2627 17C80.4027 17.73 79.5426 18.46 78.6826 19.2C78.1426 19.66 77.7226 19.66 77.1826 19.2C75.9226 18.11 74.6727 17.01 73.4227 15.92C73.2727 15.79 73.1126 15.66 72.9326 15.5C72.4226 15.95 71.9026 16.39 71.3926 16.84C70.4926 17.63 69.5927 18.41 68.6927 19.2C68.1527 19.67 67.7027 19.67 67.1627 19.2C65.8227 18.03 64.4826 16.86 63.1426 15.69C63.0826 15.63 63.0126 15.58 62.9326 15.51C62.2826 16.08 61.6327 16.65 60.9827 17.21C60.2327 17.87 59.4727 18.53 58.7227 19.19C58.1527 19.68 57.7427 19.68 57.1727 19.19C56.3227 18.47 55.4726 17.74 54.6126 17.01C54.5226 16.94 54.4327 16.86 54.2827 16.75C54.2327 17.31 54.1726 17.82 54.1526 18.32C53.7626 24.97 58.4527 31.11 64.9727 32.49C65.6127 32.63 66.2727 32.71 66.9127 32.81H68.9626L68.9527 32.8Z" fill="#F8F5DE"/>
<path d="M67.1627 0.00999451C66.5727 0.139995 65.9727 0.239998 65.4027 0.419998C63.7327 0.939998 62.3227 1.9 61.0627 3.1C58.6627 5.38 57.0027 8.15 55.7927 11.21C55.3827 12.25 55.0927 13.33 54.7627 14.39C54.7327 14.48 54.7827 14.64 54.8527 14.7C55.8327 15.55 56.8227 16.39 57.8227 17.23C57.8527 17.26 57.8927 17.28 57.9427 17.31C58.6827 16.67 59.4227 16.02 60.1527 15.38C60.8427 14.78 61.5327 14.17 62.2227 13.57C62.6927 13.17 63.1527 13.16 63.6227 13.57C64.9927 14.76 66.3527 15.95 67.7227 17.14C67.7827 17.19 67.8526 17.25 67.9326 17.31C68.7826 16.57 69.6227 15.83 70.4727 15.1C71.0327 14.61 71.5927 14.12 72.1627 13.63C72.7227 13.15 73.1626 13.15 73.7126 13.63C75.0626 14.81 76.4127 15.99 77.7627 17.16C77.8227 17.21 77.8827 17.25 77.9527 17.31C78.7327 16.65 79.5026 16 80.2726 15.34C80.5026 15.15 80.7227 14.94 80.9527 14.76C81.1227 14.64 81.1626 14.52 81.1126 14.31C80.1026 10.54 78.4427 7.11 75.8527 4.16C74.4727 2.59 72.8726 1.29 70.8926 0.559998C70.2626 0.329998 69.5827 0.229998 68.9227 0.0599976C68.8527 0.0399976 68.7826 0.02 68.7126 0C68.2026 0 67.6926 0 67.1826 0L67.1627 0.00999451Z" fill="#FDFDFC"/>
<path d="M14.8227 32.8C15.3527 32.72 15.8927 32.66 16.4227 32.55C21.3127 31.5 24.7226 28.65 26.6426 24.03C27.5526 21.85 27.7826 19.57 27.4926 17.22C27.4926 17.15 27.4927 17.07 27.4827 17C27.4827 16.94 27.4627 16.88 27.4527 16.75C27.3227 16.85 27.2227 16.92 27.1327 17C26.2727 17.73 25.4126 18.46 24.5526 19.2C24.0126 19.66 23.5926 19.66 23.0526 19.2C21.7926 18.11 20.5427 17.01 19.2927 15.92C19.1427 15.79 18.9826 15.66 18.8026 15.5C18.2926 15.95 17.7727 16.39 17.2627 16.84C16.3627 17.63 15.4627 18.41 14.5627 19.2C14.0227 19.67 13.5727 19.67 13.0327 19.2C11.6927 18.03 10.3527 16.86 9.01266 15.69C8.95266 15.63 8.88264 15.58 8.80264 15.51C8.15264 16.08 7.50266 16.65 6.85266 17.21C6.10266 17.87 5.34265 18.53 4.59265 19.19C4.02265 19.68 3.61266 19.68 3.04266 19.19C2.19266 18.47 1.34266 17.74 0.482665 17.01C0.392665 16.94 0.302648 16.86 0.152648 16.75C0.102648 17.31 0.042643 17.82 0.022643 18.32C-0.367357 24.97 4.32265 31.11 10.8427 32.49C11.4827 32.63 12.1427 32.71 12.7827 32.81H14.8326L14.8227 32.8Z" fill="#F8F5DE"/>
<path d="M13.0327 0.00999451C12.4427 0.139995 11.8426 0.239998 11.2726 0.419998C9.60265 0.939998 8.19265 1.9 6.93265 3.1C4.53265 5.38 2.87266 8.15 1.66266 11.21C1.25266 12.25 0.962661 13.33 0.632661 14.39C0.602661 14.48 0.652658 14.64 0.722658 14.7C1.70266 15.55 2.69266 16.39 3.69266 17.23C3.72266 17.26 3.76265 17.28 3.81265 17.31C4.55265 16.67 5.29265 16.02 6.02265 15.38C6.71265 14.78 7.40265 14.17 8.09265 13.57C8.56265 13.17 9.02265 13.16 9.49265 13.57C10.8626 14.76 12.2227 15.95 13.5927 17.14C13.6527 17.19 13.7226 17.25 13.8026 17.31C14.6526 16.57 15.4927 15.83 16.3427 15.1C16.9027 14.61 17.4627 14.12 18.0327 13.63C18.5927 13.15 19.0326 13.15 19.5826 13.63C20.9326 14.81 22.2827 15.99 23.6327 17.16C23.6927 17.21 23.7527 17.25 23.8227 17.31C24.6027 16.65 25.3726 16 26.1426 15.34C26.3726 15.15 26.5927 14.94 26.8227 14.76C26.9927 14.64 27.0327 14.52 26.9827 14.31C25.9727 10.54 24.3127 7.11 21.7227 4.16C20.3427 2.59 18.7427 1.29 16.7627 0.559998C16.1327 0.329998 15.4527 0.229998 14.7927 0.0599976C14.7227 0.0399976 14.6526 0.02 14.5826 0C14.0726 0 13.5626 0 13.0526 0L13.0327 0.00999451Z" fill="#FDFDFC"/>
<path d="M68.9527 101.97C69.4827 101.89 70.0226 101.83 70.5526 101.72C75.4426 100.67 78.8526 97.8199 80.7726 93.1999C81.6826 91.0199 81.9126 88.7399 81.6226 86.3899C81.6226 86.3199 81.6226 86.2399 81.6126 86.1699C81.6126 86.1099 81.5926 86.0499 81.5826 85.9199C81.4526 86.0199 81.3527 86.0899 81.2627 86.1699C80.4027 86.8999 79.5426 87.6299 78.6826 88.3699C78.1426 88.8299 77.7226 88.8299 77.1826 88.3699C75.9226 87.2799 74.6727 86.1799 73.4227 85.0899C73.2727 84.9599 73.1126 84.8299 72.9326 84.6699C72.4226 85.1199 71.9026 85.5599 71.3926 86.0099C70.4926 86.7999 69.5927 87.5799 68.6927 88.3699C68.1527 88.8399 67.7027 88.8399 67.1627 88.3699C65.8227 87.1999 64.4826 86.0299 63.1426 84.8599C63.0826 84.7999 63.0126 84.7499 62.9326 84.6799C62.2826 85.2499 61.6327 85.8199 60.9827 86.3799C60.2327 87.0399 59.4727 87.6999 58.7227 88.3599C58.1527 88.8499 57.7427 88.8499 57.1727 88.3599C56.3227 87.6399 55.4726 86.9099 54.6126 86.1799C54.5226 86.1099 54.4327 86.0299 54.2827 85.9199C54.2327 86.4799 54.1726 86.9899 54.1526 87.4899C53.7626 94.1399 58.4527 100.28 64.9727 101.66C65.6127 101.8 66.2727 101.88 66.9127 101.98H68.9626L68.9527 101.97Z" fill="#F8F5DE"/>
<path d="M67.1627 69.1799C66.5727 69.3099 65.9727 69.4099 65.4027 69.5899C63.7327 70.1099 62.3227 71.0699 61.0627 72.2699C58.6627 74.5499 57.0027 77.3199 55.7927 80.3799C55.3827 81.4199 55.0927 82.4999 54.7627 83.5599C54.7327 83.6499 54.7827 83.8099 54.8527 83.8699C55.8327 84.7199 56.8227 85.5599 57.8227 86.3999C57.8527 86.4299 57.8927 86.4499 57.9427 86.4799C58.6827 85.8399 59.4227 85.1899 60.1527 84.5499C60.8427 83.9499 61.5327 83.3399 62.2227 82.7399C62.6927 82.3399 63.1527 82.3299 63.6227 82.7399C64.9927 83.9299 66.3527 85.1199 67.7227 86.3099C67.7827 86.3599 67.8526 86.4199 67.9326 86.4799C68.7826 85.7399 69.6227 84.9999 70.4727 84.2699C71.0327 83.7799 71.5927 83.2899 72.1627 82.7999C72.7227 82.3199 73.1626 82.3199 73.7126 82.7999C75.0626 83.9799 76.4127 85.1599 77.7627 86.3299C77.8227 86.3799 77.8827 86.4199 77.9527 86.4799C78.7327 85.8199 79.5026 85.1699 80.2726 84.5099C80.5026 84.3199 80.7227 84.1099 80.9527 83.9299C81.1227 83.8099 81.1626 83.6899 81.1126 83.4799C80.1026 79.7099 78.4427 76.2799 75.8527 73.3299C74.4727 71.7599 72.8726 70.4599 70.8926 69.7299C70.2626 69.4999 69.5827 69.3999 68.9227 69.2299C68.8527 69.2099 68.7826 69.1899 68.7126 69.1699C68.2026 69.1699 67.6926 69.1699 67.1826 69.1699L67.1627 69.1799Z" fill="#FDFDFC"/>
<path d="M14.8227 101.97C15.3527 101.89 15.8927 101.83 16.4227 101.72C21.3127 100.67 24.7226 97.8199 26.6426 93.1999C27.5526 91.0199 27.7826 88.7399 27.4926 86.3899C27.4926 86.3199 27.4927 86.2399 27.4827 86.1699C27.4827 86.1099 27.4627 86.0499 27.4527 85.9199C27.3227 86.0199 27.2227 86.0899 27.1327 86.1699C26.2727 86.8999 25.4126 87.6299 24.5526 88.3699C24.0126 88.8299 23.5926 88.8299 23.0526 88.3699C21.7926 87.2799 20.5427 86.1799 19.2927 85.0899C19.1427 84.9599 18.9826 84.8299 18.8026 84.6699C18.2926 85.1199 17.7727 85.5599 17.2627 86.0099C16.3627 86.7999 15.4627 87.5799 14.5627 88.3699C14.0227 88.8399 13.5727 88.8399 13.0327 88.3699C11.6927 87.1999 10.3527 86.0299 9.01266 84.8599C8.95266 84.7999 8.88264 84.7499 8.80264 84.6799C8.15264 85.2499 7.50266 85.8199 6.85266 86.3799C6.10266 87.0399 5.34265 87.6999 4.59265 88.3599C4.02265 88.8499 3.61266 88.8499 3.04266 88.3599C2.19266 87.6399 1.34266 86.9099 0.482665 86.1799C0.392665 86.1099 0.302648 86.0299 0.152648 85.9199C0.102648 86.4799 0.042643 86.9899 0.022643 87.4899C-0.367357 94.1399 4.32265 100.28 10.8427 101.66C11.4827 101.8 12.1427 101.88 12.7827 101.98H14.8326L14.8227 101.97Z" fill="#F8F5DE"/>
<path d="M13.0327 69.1799C12.4427 69.3099 11.8426 69.4099 11.2726 69.5899C9.60265 70.1099 8.19265 71.0699 6.93265 72.2699C4.53265 74.5499 2.87266 77.3199 1.66266 80.3799C1.25266 81.4199 0.962661 82.4999 0.632661 83.5599C0.602661 83.6499 0.652658 83.8099 0.722658 83.8699C1.70266 84.7199 2.69266 85.5599 3.69266 86.3999C3.72266 86.4299 3.76265 86.4499 3.81265 86.4799C4.55265 85.8399 5.29265 85.1899 6.02265 84.5499C6.71265 83.9499 7.40265 83.3399 8.09265 82.7399C8.56265 82.3399 9.02265 82.3299 9.49265 82.7399C10.8626 83.9299 12.2227 85.1199 13.5927 86.3099C13.6527 86.3599 13.7226 86.4199 13.8026 86.4799C14.6526 85.7399 15.4927 84.9999 16.3427 84.2699C16.9027 83.7799 17.4627 83.2899 18.0327 82.7999C18.5927 82.3199 19.0326 82.3199 19.5826 82.7999C20.9326 83.9799 22.2827 85.1599 23.6327 86.3299C23.6927 86.3799 23.7527 86.4199 23.8227 86.4799C24.6027 85.8199 25.3726 85.1699 26.1426 84.5099C26.3726 84.3199 26.5927 84.1099 26.8227 83.9299C26.9927 83.8099 27.0327 83.6899 26.9827 83.4799C25.9727 79.7099 24.3127 76.2799 21.7227 73.3299C20.3427 71.7599 18.7427 70.4599 16.7627 69.7299C16.1327 69.4999 15.4527 69.3999 14.7927 69.2299C14.7227 69.2099 14.6526 69.1899 14.5826 69.1699C14.0726 69.1699 13.5626 69.1699 13.0526 69.1699L13.0327 69.1799Z" fill="#FDFDFC"/>
<path d="M98.8827 66.55C99.4127 66.47 99.9527 66.41 100.483 66.3C105.373 65.25 108.783 62.4 110.703 57.78C111.613 55.6 111.843 53.32 111.553 50.97C111.553 50.9 111.553 50.82 111.543 50.75C111.543 50.69 111.523 50.63 111.513 50.5C111.383 50.6 111.283 50.67 111.193 50.75C110.333 51.48 109.473 52.21 108.613 52.95C108.073 53.41 107.653 53.41 107.113 52.95C105.853 51.86 104.603 50.76 103.353 49.67C103.203 49.54 103.043 49.41 102.863 49.25C102.353 49.7 101.833 50.14 101.323 50.59C100.423 51.38 99.5226 52.16 98.6226 52.95C98.0826 53.42 97.6327 53.42 97.0927 52.95C95.7527 51.78 94.4127 50.61 93.0727 49.44C93.0127 49.38 92.9426 49.33 92.8626 49.26C92.2126 49.83 91.5627 50.4 90.9127 50.96C90.1627 51.62 89.4026 52.28 88.6526 52.94C88.0826 53.43 87.6727 53.43 87.1027 52.94C86.2527 52.22 85.4027 51.49 84.5427 50.76C84.4527 50.69 84.3626 50.61 84.2126 50.5C84.1626 51.06 84.1026 51.57 84.0826 52.07C83.6926 58.72 88.3826 64.86 94.9026 66.24C95.5426 66.38 96.2027 66.46 96.8427 66.56H98.8926L98.8827 66.55Z" fill="#F8F5DE"/>
<path d="M97.0927 33.76C96.5027 33.89 95.9026 33.99 95.3326 34.17C93.6626 34.69 92.2526 35.65 90.9926 36.85C88.5926 39.13 86.9327 41.9 85.7227 44.96C85.3127 46 85.0227 47.08 84.6927 48.14C84.6627 48.23 84.7127 48.39 84.7827 48.45C85.7627 49.3 86.7527 50.14 87.7527 50.98C87.7827 51.01 87.8227 51.03 87.8727 51.06C88.6127 50.42 89.3526 49.77 90.0826 49.13C90.7726 48.53 91.4627 47.92 92.1527 47.32C92.6227 46.92 93.0826 46.91 93.5526 47.32C94.9226 48.51 96.2827 49.7 97.6527 50.89C97.7127 50.94 97.7826 51 97.8626 51.06C98.7126 50.32 99.5527 49.58 100.403 48.85C100.963 48.36 101.523 47.87 102.093 47.38C102.653 46.9 103.093 46.9 103.643 47.38C104.993 48.56 106.343 49.74 107.693 50.91C107.753 50.96 107.813 51 107.883 51.06C108.663 50.4 109.433 49.75 110.203 49.09C110.433 48.9 110.653 48.69 110.883 48.51C111.053 48.39 111.093 48.27 111.043 48.06C110.033 44.29 108.373 40.86 105.783 37.91C104.403 36.34 102.803 35.04 100.823 34.31C100.193 34.08 99.5127 33.98 98.8527 33.81C98.7827 33.79 98.7126 33.77 98.6426 33.75C98.1326 33.75 97.6226 33.75 97.1126 33.75L97.0927 33.76Z" fill="#FDFDFC"/>
<path d="M39.0327 66.55C39.5627 66.47 40.1027 66.41 40.6327 66.3C45.5227 65.25 48.9327 62.4 50.8527 57.78C51.7627 55.6 51.9927 53.32 51.7027 50.97C51.7027 50.9 51.7027 50.82 51.6927 50.75C51.6927 50.69 51.6727 50.63 51.6627 50.5C51.5327 50.6 51.4327 50.67 51.3427 50.75C50.4827 51.48 49.6227 52.21 48.7627 52.95C48.2227 53.41 47.8027 53.41 47.2627 52.95C46.0027 51.86 44.7527 50.76 43.5027 49.67C43.3527 49.54 43.1927 49.41 43.0127 49.25C42.5027 49.7 41.9827 50.14 41.4727 50.59C40.5727 51.38 39.6726 52.16 38.7726 52.95C38.2326 53.42 37.7826 53.42 37.2426 52.95C35.9026 51.78 34.5627 50.61 33.2227 49.44C33.1627 49.38 33.0927 49.33 33.0127 49.26C32.3627 49.83 31.7127 50.4 31.0627 50.96C30.3127 51.62 29.5526 52.28 28.8026 52.94C28.2326 53.43 27.8227 53.43 27.2527 52.94C26.4027 52.22 25.5527 51.49 24.6927 50.76C24.6027 50.69 24.5126 50.61 24.3626 50.5C24.3126 51.06 24.2527 51.57 24.2327 52.07C23.8427 58.72 28.5326 64.86 35.0526 66.24C35.6926 66.38 36.3526 66.46 36.9926 66.56H39.0427L39.0327 66.55Z" fill="#F8F5DE"/>
<path d="M37.2426 33.76C36.6526 33.89 36.0527 33.99 35.4827 34.17C33.8127 34.69 32.4026 35.65 31.1426 36.85C28.7426 39.13 27.0827 41.9 25.8727 44.96C25.4627 46 25.1727 47.08 24.8427 48.14C24.8127 48.23 24.8626 48.39 24.9326 48.45C25.9126 49.3 26.9027 50.14 27.9027 50.98C27.9327 51.01 27.9726 51.03 28.0226 51.06C28.7626 50.42 29.5027 49.77 30.2327 49.13C30.9227 48.53 31.6126 47.92 32.3026 47.32C32.7726 46.92 33.2327 46.91 33.7027 47.32C35.0727 48.51 36.4326 49.7 37.8026 50.89C37.8626 50.94 37.9327 51 38.0127 51.06C38.8627 50.32 39.7026 49.58 40.5526 48.85C41.1126 48.36 41.6726 47.87 42.2426 47.38C42.8026 46.9 43.2427 46.9 43.7927 47.38C45.1427 48.56 46.4927 49.74 47.8427 50.91C47.9027 50.96 47.9627 51 48.0327 51.06C48.8127 50.4 49.5827 49.75 50.3527 49.09C50.5827 48.9 50.8027 48.69 51.0327 48.51C51.2027 48.39 51.2427 48.27 51.1927 48.06C50.1827 44.29 48.5226 40.86 45.9326 37.91C44.5526 36.34 42.9527 35.04 40.9727 34.31C40.3427 34.08 39.6627 33.98 39.0027 33.81C38.9327 33.79 38.8627 33.77 38.7927 33.75C38.2827 33.75 37.7727 33.75 37.2627 33.75L37.2426 33.76Z" fill="#FDFDFC"/>
</g>
<defs>
<clipPath id="clip0_1238_1454">
<rect width="112" height="102" fill="white"/>
</clipPath>
</defs>
</svg>
