<svg width="130" height="102" viewBox="0 0 130 102" fill="none" xmlns="http://www.w3.org/2000/svg">
<g clip-path="url(#clip0_1238_1453)">
<path d="M44.7427 3.1379C40.6265 1.12595 36.0027 0 31.1113 0C27.595 0 24.2172 0.581436 21.07 1.66124C11.1118 5.04832 3.424 13.3637 0.895223 23.6819C0.31379 26.063 0 28.5456 0 31.1113C0 48.2866 13.9267 62.2134 31.1113 62.2134C47.3084 62.2134 60.6167 49.8279 62.0749 34.0092C62.1672 33.0586 62.2134 32.0896 62.2134 31.1113C62.2134 18.8181 55.0885 8.19544 44.7427 3.14713V3.1379Z" fill="#F8F5DE"/>
<path d="M35.3659 43.2845C34.4522 43.2845 33.5293 43.0537 32.6803 42.6015C31.7112 42.0847 30.493 42.0847 29.5239 42.6015C28.6841 43.0537 27.7796 43.2845 26.8475 43.2845C25.177 43.2845 23.5896 42.5369 22.5006 41.2264C21.4207 39.9343 20.9962 38.3008 21.3008 36.6303C21.3377 36.4273 21.3561 36.2242 21.3561 36.0304C21.3561 35.126 20.9778 34.2584 20.3317 33.6401C19.1965 32.5603 18.5782 31.1205 18.5782 29.5885C18.5782 26.7182 20.6363 24.3556 23.4696 23.9772C24.0141 23.9034 24.531 23.7003 24.9832 23.3773C25.417 23.0543 25.7769 22.6205 26.0168 22.1314C26.9674 20.1564 28.9148 18.9381 31.1021 18.9381C33.2894 18.9381 35.2367 20.1656 36.1781 22.1314C36.658 23.1466 37.6178 23.8388 38.7253 23.9864C41.5586 24.3741 43.6167 26.7275 43.6167 29.5977C43.6167 31.1298 42.9984 32.5695 41.8632 33.6493C41.2079 34.2676 40.8388 35.1444 40.8388 36.0489C40.8388 36.2427 40.8572 36.4457 40.8942 36.6488C40.9588 37.0087 40.9864 37.3594 40.9864 37.7009C40.9864 39.6851 39.9528 41.4848 38.2269 42.5185C37.3409 43.0445 36.3534 43.3122 35.3567 43.3122L35.3659 43.2845Z" fill="#C98B45"/>
<path d="M31.1113 28.3241C29.2009 28.3241 27.6504 29.8746 27.6504 31.785C27.6504 33.6954 29.2009 35.2459 31.1113 35.2459C33.0217 35.2459 34.5722 33.6954 34.5722 31.785C34.5722 29.8746 33.0217 28.3241 31.1113 28.3241Z" fill="#FDFDFC"/>
<path d="M111.607 41.0787C107.362 39.0022 102.591 37.8393 97.5516 37.8393C93.9245 37.8393 90.4452 38.4392 87.1965 39.5467C76.9245 43.0445 68.9967 51.6091 66.3941 62.2595C65.7942 64.7144 65.4712 67.2801 65.4712 69.9196C65.4712 87.6395 79.8317 102 97.5608 102C114.265 102 127.998 89.2269 129.503 72.9099C129.595 71.9316 129.641 70.9348 129.641 69.9196C129.641 57.2389 122.286 46.2839 111.617 41.0695L111.607 41.0787Z" fill="#F8F5DE"/>
<path d="M101.935 82.4805C100.985 82.4805 100.043 82.2405 99.1667 81.7698C98.1699 81.2345 96.9148 81.2345 95.9088 81.7698C95.0412 82.2405 94.1091 82.4712 93.1493 82.4712C91.4234 82.4712 89.7899 81.696 88.6639 80.3485C87.5564 79.0196 87.1135 77.3306 87.4272 75.6048C87.4642 75.3925 87.4826 75.1895 87.4826 74.9864C87.4826 74.0543 87.095 73.1591 86.4213 72.5223C85.2492 71.4055 84.6124 69.9289 84.6124 68.3415C84.6124 65.3789 86.7351 62.9517 89.6607 62.5548C90.2237 62.481 90.7589 62.2687 91.2204 61.9273C91.6726 61.595 92.0418 61.152 92.291 60.6352C93.2785 58.6048 95.2812 57.3404 97.5331 57.3404C99.785 57.3404 101.797 58.6048 102.775 60.6352C103.274 61.6781 104.261 62.3979 105.406 62.5456C108.331 62.9425 110.454 65.3789 110.454 68.3323C110.454 69.9197 109.808 71.3963 108.645 72.513C107.971 73.1498 107.584 74.0543 107.584 74.9864C107.584 75.1895 107.602 75.3925 107.639 75.6048C107.704 75.9832 107.74 76.3431 107.74 76.6846C107.74 78.7335 106.679 80.5885 104.889 81.6499C103.975 82.1944 102.951 82.4712 101.935 82.4712V82.4805Z" fill="#C98B45"/>
<path d="M97.5423 67.0587C95.5765 67.0587 93.9706 68.6553 93.9706 70.6303C93.9706 72.6054 95.5673 74.202 97.5423 74.202C99.5173 74.202 101.114 72.6054 101.114 70.6303C101.114 68.6553 99.5173 67.0587 97.5423 67.0587Z" fill="#FDFDFC"/>
</g>
<defs>
<clipPath id="clip0_1238_1453">
<rect width="130" height="102" fill="white"/>
</clipPath>
</defs>
</svg>
