<svg width="105" height="105" viewBox="0 0 105 105" fill="none" xmlns="http://www.w3.org/2000/svg">
<g clip-path="url(#clip0_1238_1455)">
<path d="M52.37 104.73C23.5 104.73 0 81.24 0 52.36C0 23.48 23.5 0 52.37 0C81.24 0 104.74 23.49 104.74 52.37C104.74 81.25 81.25 104.74 52.37 104.74V104.73Z" fill="#F8F5DE"/>
<path d="M90.52 52.37C91.96 51.68 93.24 50.65 94.25 49.33C96.2 46.75 96.82 43.49 95.94 40.38C95.64 39.32 95.3 38.26 94.92 37.23C94.55 36.23 94.13 35.19 93.67 34.16C92.34 31.21 89.77 29.11 86.62 28.39C85 28.02 83.35 28.06 81.8 28.46C82.46 27 82.78 25.39 82.7 23.73C82.54 20.5 80.92 17.61 78.24 15.78C77.29 15.14 76.35 14.54 75.43 14.02C74.51 13.49 73.53 12.96 72.5 12.47C69.59 11.07 66.27 11.11 63.4 12.58C61.92 13.34 60.68 14.42 59.75 15.73C59.32 14.19 58.53 12.75 57.4 11.53C55.2 9.16 52.1 7.99 48.88 8.31C47.7 8.43 46.62 8.58 45.6 8.76C44.51 8.95 43.42 9.19 42.36 9.46C39.23 10.26 36.71 12.42 35.46 15.4C34.81 16.93 34.56 18.56 34.69 20.15C33.37 19.24 31.84 18.65 30.19 18.44C26.99 18.04 23.85 19.13 21.59 21.45C20.81 22.25 20.06 23.08 19.36 23.91C18.66 24.74 17.98 25.63 17.33 26.53C15.44 29.15 14.91 32.43 15.86 35.51C16.35 37.1 17.2 38.51 18.33 39.65C16.74 39.8 15.18 40.33 13.78 41.23C11.07 42.98 9.36997 45.84 9.12997 49.06C9.04997 50.2 9 51.31 9 52.37C9 53.43 9.03997 54.54 9.12997 55.68C9.36997 58.9 11.07 61.76 13.78 63.51C15.18 64.42 16.74 64.93 18.34 65.08C17.21 66.23 16.35 67.64 15.86 69.24C14.91 72.33 15.45 75.6 17.33 78.22C17.97 79.12 18.66 80 19.36 80.84C20.06 81.67 20.81 82.5 21.59 83.3C23.54 85.3 26.15 86.39 28.89 86.39C29.32 86.39 29.76 86.36 30.19 86.31C31.84 86.1 33.37 85.51 34.69 84.6C34.57 86.2 34.81 87.82 35.46 89.35C36.71 92.33 39.23 94.49 42.36 95.29C43.43 95.56 44.52 95.8 45.6 95.99C46.64 96.18 47.71 96.33 48.89 96.45C49.24 96.49 49.59 96.5 49.93 96.5C52.77 96.5 55.45 95.34 57.41 93.23C58.54 92.01 59.33 90.57 59.76 89.03C60.69 90.33 61.93 91.42 63.41 92.18C64.88 92.94 66.48 93.31 68.07 93.31C69.58 93.31 71.1 92.97 72.51 92.29C73.53 91.8 74.52 91.27 75.44 90.74C76.36 90.21 77.28 89.63 78.25 88.98C80.92 87.16 82.55 84.26 82.71 81.03C82.79 79.37 82.47 77.76 81.81 76.31C82.63 76.52 83.47 76.63 84.32 76.63C85.08 76.63 85.86 76.54 86.62 76.37C89.77 75.65 92.34 73.55 93.67 70.6C94.13 69.57 94.55 68.54 94.92 67.53C95.3 66.49 95.64 65.43 95.94 64.38C96.82 61.27 96.2 58 94.25 55.43C93.24 54.1 91.96 53.08 90.52 52.39V52.37Z" fill="#C98B45"/>
<path d="M52.55 57.92C51.58 57.92 50.62 57.66 49.78 57.18C48.65 56.52 47.78 55.49 47.33 54.27C47.11 53.66 47 53.02 47 52.37C47 51.72 47.11 51.08 47.33 50.47C47.78 49.25 48.64 48.21 49.77 47.56C50.9 46.91 52.19 46.67 53.51 46.9C54.79 47.12 55.96 47.8 56.8 48.8C57.64 49.79 58.1 51.06 58.1 52.37C58.1 53.68 57.64 54.95 56.8 55.94C55.96 56.94 54.79 57.61 53.51 57.84C53.19 57.9 52.87 57.92 52.55 57.92Z" fill="#FDFDFC"/>
</g>
<defs>
<clipPath id="clip0_1238_1455">
<rect width="105" height="105" fill="white"/>
</clipPath>
</defs>
</svg>
