<svg width="345" height="382" viewBox="0 0 345 382" fill="none" xmlns="http://www.w3.org/2000/svg">
<g clip-path="url(#clip0_1258_1457)">
<path d="M0 132.941V381.914H345V132.941L172.181 1.5528L0 132.941Z" fill="#FF6A52"/>
<g style="mix-blend-mode:multiply" opacity="0.41">
<path opacity="0.02" d="M345 147.298V300.349H0V147.669L15.8357 147.298L133.073 247.039L172.533 212.811L213.405 246.306L329.164 147.298H345Z" fill="#FDFDFD"/>
<path opacity="0.02" d="M345 147.374V300.425H0V147.736L15.8357 147.374L133.063 247.096L172.533 212.877L213.414 246.372L329.164 147.374H345Z" fill="#FCFCFC"/>
<path opacity="0.03" d="M345 147.44V300.492H0V147.802L15.8357 147.44L133.054 247.163L172.533 212.944L213.414 246.449L329.164 147.44H345Z" fill="#FBFBFB"/>
<path opacity="0.04" d="M345 147.507V300.559H0V147.869L15.8357 147.507L133.054 247.22L172.533 213.011L213.414 246.515L329.164 147.507H345Z" fill="#FAFAFA"/>
<path opacity="0.05" d="M345 147.574V300.625H0V147.945L15.8357 147.574L133.044 247.287L172.533 213.087L213.414 246.582L329.164 147.574H345Z" fill="#F9F9F9"/>
<path opacity="0.06" d="M345 147.65V300.702H0V148.012L15.8357 147.65L133.035 247.344L172.533 213.154L213.414 246.649L329.164 147.65H345Z" fill="#F8F8F8"/>
<path opacity="0.06" d="M345 147.717V300.768H0V148.079L15.8357 147.717L133.025 247.411L172.533 213.22L213.414 246.725L329.164 147.717H345Z" fill="#F7F7F7"/>
<path opacity="0.07" d="M345 147.783V300.835H0V148.145L15.8357 147.783L133.016 247.468L172.533 213.287L213.414 246.791L329.164 147.783H345Z" fill="#F6F6F6"/>
<path opacity="0.08" d="M345 147.85V300.902H0V148.222L15.8357 147.85L133.006 247.535L172.533 213.363L213.414 246.858L329.164 147.85H345Z" fill="#F5F5F5"/>
<path opacity="0.09" d="M345 147.926V300.978H0V148.288L15.8357 147.926L132.997 247.592L172.533 213.43L213.414 246.925L329.164 147.926H345Z" fill="#F4F4F4"/>
<path opacity="0.09" d="M345 147.993V301.044H0V148.355L15.8357 147.993L132.997 247.658L172.533 213.497L213.414 246.992L329.164 147.993H345Z" fill="#F3F3F3"/>
<path opacity="0.1" d="M345 148.06V301.111H0V148.422L15.8357 148.06L132.987 247.716L172.533 213.563L213.414 247.068L329.164 148.06H345Z" fill="#F2F2F2"/>
<path opacity="0.11" d="M345 148.126V301.178H0V148.498L15.8357 148.126L132.978 247.782L172.533 213.64L213.414 247.134L329.164 148.126H345Z" fill="#F1F1F1"/>
<path opacity="0.12" d="M345 148.193V301.254H0V148.565L15.8357 148.193L132.968 247.849L172.533 213.706L213.414 247.201L329.164 148.193H345Z" fill="#F0F0F0"/>
<path opacity="0.13" d="M345 148.269V301.321H0V148.631L15.8357 148.269L132.959 247.906L172.533 213.773L213.414 247.268L329.164 148.269H345Z" fill="#EFEFEF"/>
<path opacity="0.13" d="M345 148.336V301.387H0V148.698L15.8357 148.336L132.949 247.973L172.533 213.84L213.414 247.344L329.164 148.336H345Z" fill="#EEEEEE"/>
<path opacity="0.14" d="M345 148.403V301.454H0V148.774L15.8357 148.403L132.949 248.03L172.533 213.916L213.414 247.411L329.164 148.403H345Z" fill="#EDEDED"/>
<path opacity="0.15" d="M345 148.469V301.53H0V148.841L15.8357 148.469L132.939 248.097L172.533 213.982L213.414 247.477L329.164 148.469H345Z" fill="#ECECEC"/>
<path opacity="0.16" d="M345 148.545V301.597H0V148.907L15.8357 148.545L132.93 248.154L172.533 214.049L213.414 247.544L329.164 148.545H345Z" fill="#EBEBEB"/>
<path opacity="0.17" d="M345 148.612V301.664H0V148.974L15.8357 148.612L132.92 248.22L172.533 214.116L213.414 247.611L329.164 148.612H345Z" fill="#EAEAEA"/>
<path opacity="0.17" d="M345 148.679V301.73H0V149.05L15.8357 148.679L132.911 248.278L172.533 214.192L213.414 247.687L329.164 148.679H345Z" fill="#E9E9E9"/>
<path opacity="0.18" d="M345 148.746V301.807H0V149.117L15.8357 148.746L132.901 248.344L172.533 214.259L213.414 247.754L329.164 148.746H345Z" fill="#E8E8E8"/>
<path opacity="0.19" d="M345 148.822V301.873H0V149.184L15.8357 148.822L132.892 248.401L172.533 214.325L213.414 247.82L329.164 148.822H345Z" fill="#E7E7E7"/>
<path opacity="0.2" d="M345 148.888V301.94H0V149.25L15.8357 148.888L132.892 248.468L172.533 214.392L213.414 247.887L329.164 148.888H345Z" fill="#E6E6E6"/>
<path opacity="0.2" d="M345 148.955V302.007H0V149.327L15.8357 148.955L132.882 248.525L172.533 214.468L213.414 247.954L329.164 148.955H345Z" fill="#E5E5E5"/>
<path opacity="0.21" d="M345 149.022V302.083H0V149.393L15.8357 149.022L132.873 248.592L172.533 214.535L213.414 248.03L329.164 149.022H345Z" fill="#E4E4E4"/>
<path opacity="0.22" d="M345 149.098V302.15H0V149.46L15.8357 149.098L132.863 248.649L172.533 214.602L213.414 248.097L329.164 149.098H345Z" fill="#E3E3E3"/>
<path opacity="0.23" d="M345 149.165V302.216H0V149.527L15.8357 149.165L132.854 248.716L172.533 214.668L213.414 248.163L329.164 149.165H345Z" fill="#E2E2E2"/>
<path opacity="0.24" d="M345 149.231V302.283H0V149.603L15.8357 149.231L132.844 248.773L172.533 214.745L213.414 248.23L329.164 149.231H345Z" fill="#E1E1E1"/>
<path opacity="0.24" d="M345 149.298V302.359H0V149.67L15.8357 149.298L132.835 248.84L172.533 214.811L213.414 248.306L329.164 149.298H345Z" fill="#E0E0E0"/>
<path opacity="0.25" d="M345 149.374V302.426H0V149.736L15.8357 149.374L132.835 248.906L172.533 214.878L213.414 248.373L329.164 149.374H345Z" fill="#DFDFDF"/>
<path opacity="0.26" d="M345 149.441V302.492H0V149.803L15.8357 149.441L132.825 248.964L172.533 214.945L213.414 248.44L329.164 149.441H345Z" fill="#DEDEDE"/>
<path opacity="0.27" d="M345 149.508V302.559H0V149.879L15.8357 149.508L132.816 249.03L172.533 215.011L213.414 248.506L329.164 149.508H345Z" fill="#DDDDDD"/>
<path opacity="0.28" d="M345 149.574V302.626H0V149.946L15.8357 149.574L132.806 249.087L172.533 215.088L213.424 248.573L329.164 149.574H345Z" fill="#DCDCDC"/>
<path opacity="0.28" d="M345 149.651V302.702H0V150.013L15.8357 149.651L132.796 249.154L172.533 215.154L213.424 248.649L329.164 149.651H345Z" fill="#DBDBDB"/>
<path opacity="0.29" d="M345 149.717V302.769H0V150.079L15.8357 149.717L132.787 249.211L172.533 215.221L213.424 248.716L329.164 149.717H345Z" fill="#DADADA"/>
<path opacity="0.3" d="M345 149.784V302.835H0V150.146L15.8357 149.784L132.777 249.278L172.533 215.288L213.424 248.783L329.164 149.784H345Z" fill="#D9D9D9"/>
<path opacity="0.31" d="M345 149.851V302.902H0V150.222L15.8357 149.851L132.777 249.335L172.533 215.364L213.424 248.849L329.164 149.851H345Z" fill="#D8D8D8"/>
<path opacity="0.31" d="M345 149.927V302.978H0V150.289L15.8357 149.927L132.768 249.402L172.533 215.43L213.424 248.925L329.164 149.927H345Z" fill="#D7D7D7"/>
<path opacity="0.32" d="M345 149.994V303.045H0V150.356L15.8357 149.994L132.758 249.459L172.533 215.497L213.424 248.992L329.164 149.994H345Z" fill="#D6D6D6"/>
<path opacity="0.33" d="M345 150.06V303.112H0V150.422L15.8357 150.06L132.749 249.526L172.533 215.564L213.424 249.059L329.164 150.06H345Z" fill="#D5D5D5"/>
<path opacity="0.34" d="M345 150.127V303.178H0V150.498L15.8357 150.127L132.739 249.583L172.533 215.64L213.424 249.125L329.164 150.127H345Z" fill="#D4D4D4"/>
<path opacity="0.35" d="M345 150.203V303.255H0V150.565L15.8357 150.203L132.73 249.649L172.533 215.707L213.424 249.192L329.164 150.203H345Z" fill="#D3D3D3"/>
<path opacity="0.35" d="M345 150.27V303.321H0V150.632L15.8357 150.27L132.72 249.707L172.533 215.773L213.424 249.268L329.164 150.27H345Z" fill="#D2D2D2"/>
<path opacity="0.36" d="M345 150.336V303.388H0V150.698L15.8357 150.336L132.72 249.773L172.533 215.84L213.424 249.335L329.164 150.336H345Z" fill="#D1D1D1"/>
<path opacity="0.37" d="M345 150.403V303.455H0V150.775L15.8357 150.403L132.711 249.83L172.533 215.916L213.424 249.402L329.164 150.403H345Z" fill="#D0D0D0"/>
<path opacity="0.38" d="M345 150.479V303.531H0V150.841L15.8357 150.479L132.701 249.897L172.533 215.983L213.424 249.468L329.164 150.479H345Z" fill="#CFCFCF"/>
<path opacity="0.39" d="M345 150.546V303.598H0V150.908L15.8357 150.546L132.692 249.964L172.533 216.05L213.424 249.545L329.164 150.546H345Z" fill="#CECECE"/>
<path opacity="0.39" d="M345 150.613V303.664H0V150.975L15.8357 150.613L132.682 250.021L172.533 216.116L213.424 249.611L329.164 150.613H345Z" fill="#CDCDCD"/>
<path opacity="0.4" d="M345 150.679V303.731H0V151.051L15.8357 150.679L132.673 250.088L172.533 216.193L213.424 249.678L329.164 150.679H345Z" fill="#CCCCCC"/>
<path opacity="0.41" d="M345 150.756V303.807H0V151.118L15.8357 150.756L132.663 250.145L172.533 216.259L213.424 249.745L329.164 150.756H345Z" fill="#CBCBCB"/>
<path opacity="0.42" d="M345 150.822V303.874H0V151.184L15.8357 150.822L132.663 250.211L172.533 216.326L213.424 249.811L329.164 150.822H345Z" fill="#CACACA"/>
<path opacity="0.43" d="M345 150.889V303.94H0V151.251L15.8357 150.889L132.653 250.269L172.533 216.393L213.424 249.888L329.164 150.889H345Z" fill="#C9C9C9"/>
<path opacity="0.43" d="M345 150.956V304.007H0V151.327L15.8357 150.956L132.644 250.335L172.533 216.469L213.424 249.954L329.164 150.956H345Z" fill="#C8C8C8"/>
<path opacity="0.44" d="M345 151.032V304.083H0V151.394L15.8357 151.032L132.634 250.393L172.533 216.536L213.424 250.021L329.164 151.032H345Z" fill="#C7C7C7"/>
<path opacity="0.45" d="M345 151.099V304.15H0V151.461L15.8357 151.099L132.625 250.459L172.533 216.602L213.424 250.088L329.164 151.099H345Z" fill="#C6C6C6"/>
<path opacity="0.46" d="M345 151.165V304.217H0V151.527L15.8357 151.165L132.615 250.516L172.533 216.669L213.424 250.164L329.164 151.165H345Z" fill="#C5C5C5"/>
<path opacity="0.46" d="M345 151.232V304.283H0V151.603L15.8357 151.232L132.606 250.583L172.533 216.745L213.424 250.231L329.164 151.232H345Z" fill="#C4C4C4"/>
<path opacity="0.47" d="M345 151.308V304.36H0V151.67L15.8357 151.308L132.606 250.64L172.533 216.812L213.424 250.297L329.164 151.308H345Z" fill="#C3C3C3"/>
<path opacity="0.48" d="M345 151.375V304.426H0V151.737L15.8357 151.375L132.596 250.707L172.533 216.879L213.424 250.364L329.164 151.375H345Z" fill="#C2C2C2"/>
<path opacity="0.49" d="M345 151.442V304.493H0V151.804L15.8357 151.442L132.587 250.764L172.533 216.945L213.424 250.431L329.164 151.442H345Z" fill="#C1C1C1"/>
<path opacity="0.5" d="M345 151.508V304.56H0V151.88L15.8357 151.508L132.577 250.831L172.533 217.021L213.424 250.507L329.164 151.508H345Z" fill="#C0C0C0"/>
<path opacity="0.5" d="M345 151.584V304.636H0V151.946L15.8357 151.584L132.568 250.888L172.533 217.088L213.424 250.573L329.164 151.584H345Z" fill="#C0C0C0"/>
<path opacity="0.51" d="M345 151.651V304.703H0V152.013L15.8357 151.651L132.558 250.955L172.533 217.155L213.424 250.64L329.164 151.651H345Z" fill="#BFBFBF"/>
<path opacity="0.52" d="M345 151.718V304.769H0V152.08L15.8357 151.718L132.549 251.021L172.533 217.221L213.424 250.707L329.164 151.718H345Z" fill="#BEBEBE"/>
<path opacity="0.53" d="M345 151.784V304.836H0V152.156L15.8357 151.784L132.549 251.078L172.533 217.298L213.433 250.774L329.164 151.784H345Z" fill="#BDBDBD"/>
<path opacity="0.54" d="M345 151.861V304.912H0V152.223L15.8357 151.861L132.539 251.145L172.533 217.364L213.433 250.85L329.164 151.861H345Z" fill="#BCBCBC"/>
<path opacity="0.54" d="M345 151.927V304.979H0V152.289L15.8357 151.927L132.529 251.202L172.533 217.431L213.433 250.916L329.164 151.927H345Z" fill="#BBBBBB"/>
<path opacity="0.55" d="M345 151.994V305.046H0V152.356L15.8357 151.994L132.52 251.269L172.533 217.498L213.433 250.983L329.164 151.994H345Z" fill="#BABABA"/>
<path opacity="0.56" d="M345 152.061V305.112H0V152.432L15.8357 152.061L132.51 251.326L172.533 217.574L213.433 251.05L329.164 152.061H345Z" fill="#B9B9B9"/>
<path opacity="0.57" d="M345 152.137V305.188H0V152.499L15.8357 152.137L132.501 251.393L172.533 217.641L213.433 251.126L329.164 152.137H345Z" fill="#B8B8B8"/>
<path opacity="0.57" d="M345 152.204V305.255H0V152.566L15.8357 152.204L132.491 251.45L172.533 217.707L213.433 251.193L329.164 152.204H345Z" fill="#B7B7B7"/>
<path opacity="0.58" d="M345 152.27V305.322H0V152.632L15.8357 152.27L132.491 251.517L172.533 217.774L213.433 251.259L329.164 152.27H345Z" fill="#B6B6B6"/>
<path opacity="0.59" d="M345 152.337V305.389H0V152.709L15.8357 152.337L132.482 251.574L172.533 217.85L213.433 251.326L329.164 152.337H345Z" fill="#B5B5B5"/>
<path opacity="0.6" d="M345 152.404V305.465H0V152.775L15.8357 152.404L132.472 251.64L172.533 217.917L213.433 251.393L329.164 152.404H345Z" fill="#B4B4B4"/>
<path opacity="0.61" d="M345 152.48V305.531H0V152.842L15.8357 152.48L132.463 251.698L172.533 217.984L213.433 251.469L329.164 152.48H345Z" fill="#B3B3B3"/>
<path opacity="0.61" d="M345 152.547V305.598H0V152.909L15.8357 152.547L132.453 251.764L172.533 218.05L213.433 251.536L329.164 152.547H345Z" fill="#B2B2B2"/>
<path opacity="0.62" d="M345 152.613V305.665H0V152.985L15.8357 152.613L132.444 251.821L172.533 218.126L213.433 251.602L329.164 152.613H345Z" fill="#B1B1B1"/>
<path opacity="0.63" d="M345 152.68V305.741H0V153.052L15.8357 152.68L132.434 251.888L172.533 218.193L213.433 251.669L329.164 152.68H345Z" fill="#B0B0B0"/>
<path opacity="0.64" d="M345 152.756V305.808H0V153.118L15.8357 152.756L132.434 251.945L172.533 218.26L213.433 251.745L329.164 152.756H345Z" fill="#AFAFAF"/>
<path opacity="0.65" d="M345 152.823V305.874H0V153.185L15.8357 152.823L132.425 252.012L172.533 218.327L213.433 251.812L329.164 152.823H345Z" fill="#AEAEAE"/>
<path opacity="0.65" d="M345 152.89V305.941H0V153.261L15.8357 152.89L132.415 252.079L172.533 218.403L213.433 251.879L329.164 152.89H345Z" fill="#ADADAD"/>
<path opacity="0.66" d="M345 152.956V306.017H0V153.328L15.8357 152.956L132.406 252.136L172.533 218.469L213.433 251.945L329.164 152.956H345Z" fill="#ACACAC"/>
<path opacity="0.67" d="M345 153.032V306.084H0V153.394L15.8357 153.032L132.396 252.203L172.533 218.536L213.433 252.012L329.164 153.032H345Z" fill="#ABABAB"/>
<path opacity="0.68" d="M345 153.099V306.151H0V153.461L15.8357 153.099L132.386 252.26L172.533 218.603L213.433 252.088L329.164 153.099H345Z" fill="#AAAAAA"/>
<path opacity="0.69" d="M345 153.166V306.217H0V153.537L15.8357 153.166L132.377 252.326L172.533 218.679L213.433 252.155L329.164 153.166H345Z" fill="#A9A9A9"/>
<path opacity="0.69" d="M345 153.232V306.293H0V153.604L15.8357 153.232L132.377 252.383L172.533 218.746L213.433 252.222L329.164 153.232H345Z" fill="#A8A8A8"/>
<path opacity="0.7" d="M345 153.309V306.36H0V153.671L15.8357 153.309L132.367 252.45L172.533 218.812L213.433 252.288L329.164 153.309H345Z" fill="#A7A7A7"/>
<path opacity="0.71" d="M345 153.375V306.427H0V153.737L15.8357 153.375L132.358 252.507L172.533 218.879L213.433 252.364L329.164 153.375H345Z" fill="#A6A6A6"/>
<path opacity="0.72" d="M345 153.442V306.494H0V153.814L15.8357 153.442L132.348 252.574L172.533 218.955L213.433 252.431L329.164 153.442H345Z" fill="#A5A5A5"/>
<path opacity="0.72" d="M345 153.509V306.57H0V153.88L15.8357 153.509L132.339 252.631L172.533 219.022L213.433 252.498L329.164 153.509H345Z" fill="#A4A4A4"/>
<path opacity="0.73" d="M345 153.585V306.636H0V153.947L15.8357 153.585L132.329 252.698L172.533 219.089L213.433 252.564L329.164 153.585H345Z" fill="#A3A3A3"/>
<path opacity="0.74" d="M345 153.652V306.703H0V154.014L15.8357 153.652L132.32 252.755L172.533 219.155L213.433 252.631L329.164 153.652H345Z" fill="#A2A2A2"/>
<path opacity="0.75" d="M345 153.718V306.77H0V154.09L15.8357 153.718L132.32 252.822L172.533 219.232L213.433 252.707L329.164 153.718H345Z" fill="#A1A1A1"/>
<path opacity="0.76" d="M345 153.785V306.837H0V154.157L15.8357 153.785L132.31 252.879L172.533 219.298L213.433 252.774L329.164 153.785H345Z" fill="#A0A0A0"/>
<path opacity="0.76" d="M345 153.861V306.913H0V154.223L15.8357 153.861L132.301 252.946L172.533 219.365L213.433 252.841L329.164 153.861H345Z" fill="#9F9F9F"/>
<path opacity="0.77" d="M345 153.928V306.979H0V154.29L15.8357 153.928L132.291 253.003L172.533 219.432L213.433 252.907L329.164 153.928H345Z" fill="#9E9E9E"/>
<path opacity="0.78" d="M345 153.995V307.046H0V154.357L15.8357 153.995L132.282 253.069L172.533 219.498L213.443 252.984L329.164 153.995H345Z" fill="#9D9D9D"/>
<path opacity="0.79" d="M345 154.061V307.113H0V154.433L15.8357 154.061L132.272 253.136L172.533 219.574L213.443 253.05L329.164 154.061H345Z" fill="#9C9C9C"/>
<path opacity="0.8" d="M345 154.138V307.189H0V154.5L15.8357 154.138L132.263 253.193L172.533 219.641L213.443 253.117L329.164 154.138H345Z" fill="#9B9B9B"/>
<path opacity="0.8" d="M345 154.204V307.256H0V154.566L15.8357 154.204L132.263 253.26L172.533 219.708L213.443 253.184L329.164 154.204H345Z" fill="#9A9A9A"/>
<path opacity="0.81" d="M345 154.271V307.322H0V154.633L15.8357 154.271L132.253 253.317L172.533 219.775L213.443 253.25L329.164 154.271H345Z" fill="#999999"/>
<path opacity="0.82" d="M345 154.338V307.389H0V154.709L15.8357 154.338L132.243 253.384L172.533 219.851L213.443 253.327L329.164 154.338H345Z" fill="#989898"/>
<path opacity="0.83" d="M345 154.414V307.465H0V154.776L15.8357 154.414L132.234 253.441L172.533 219.917L213.443 253.393L329.164 154.414H345Z" fill="#979797"/>
<path opacity="0.83" d="M345 154.48V307.532H0V154.842L15.8357 154.48L132.224 253.508L172.533 219.984L213.443 253.46L329.164 154.48H345Z" fill="#969696"/>
<path opacity="0.84" d="M345 154.547V307.599H0V154.909L15.8357 154.547L132.215 253.565L172.533 220.051L213.443 253.527L329.164 154.547H345Z" fill="#959595"/>
<path opacity="0.85" d="M345 154.614V307.665H0V154.985L15.8357 154.614L132.205 253.631L172.533 220.127L213.443 253.603L329.164 154.614H345Z" fill="#949494"/>
<path opacity="0.86" d="M345 154.69V307.742H0V155.052L15.8357 154.69L132.205 253.689L172.533 220.194L213.443 253.67L329.164 154.69H345Z" fill="#939393"/>
<path opacity="0.87" d="M345 154.757V307.808H0V155.119L15.8357 154.757L132.196 253.755L172.533 220.26L213.443 253.736L329.164 154.757H345Z" fill="#929292"/>
<path opacity="0.87" d="M345 154.823V307.875H0V155.185L15.8357 154.823L132.186 253.812L172.533 220.327L213.443 253.803L329.164 154.823H345Z" fill="#919191"/>
<path opacity="0.88" d="M345 154.89V307.942H0V155.262L15.8357 154.89L132.177 253.879L172.533 220.403L213.443 253.87L329.164 154.89H345Z" fill="#909090"/>
<path opacity="0.89" d="M345 154.966V308.018H0V155.328L15.8357 154.966L132.167 253.936L172.533 220.47L213.443 253.946L329.164 154.966H345Z" fill="#8F8F8F"/>
<path opacity="0.9" d="M345 155.033V308.085H0V155.395L15.8357 155.033L132.158 254.003L172.533 220.537L213.443 254.013L329.164 155.033H345Z" fill="#8E8E8E"/>
<path opacity="0.91" d="M345 155.1V308.151H0V155.462L15.8357 155.1L132.148 254.06L172.533 220.603L213.443 254.079L329.164 155.1H345Z" fill="#8D8D8D"/>
<path opacity="0.91" d="M345 155.166V308.218H0V155.538L15.8357 155.166L132.148 254.127L172.533 220.68L213.443 254.146L329.164 155.166H345Z" fill="#8C8C8C"/>
<path opacity="0.92" d="M345 155.243V308.294H0V155.605L15.8357 155.243L132.139 254.194L172.533 220.746L213.443 254.213L329.164 155.243H345Z" fill="#8B8B8B"/>
<path opacity="0.93" d="M345 155.309V308.361H0V155.671L15.8357 155.309L132.129 254.251L172.533 220.813L213.443 254.289L329.164 155.309H345Z" fill="#8A8A8A"/>
<path opacity="0.94" d="M345 155.376V308.427H0V155.738L15.8357 155.376L132.12 254.317L172.533 220.88L213.443 254.356L329.164 155.376H345Z" fill="#898989"/>
<path opacity="0.94" d="M345 155.443V308.494H0V155.814L15.8357 155.443L132.11 254.375L172.533 220.956L213.443 254.422L329.164 155.443H345Z" fill="#888888"/>
<path opacity="0.95" d="M345 155.519V308.57H0V155.881L15.8357 155.519L132.1 254.441L172.533 221.023L213.443 254.489L329.164 155.519H345Z" fill="#878787"/>
<path opacity="0.96" d="M345 155.586V308.637H0V155.948L15.8357 155.586L132.1 254.498L172.533 221.089L213.443 254.565L329.164 155.586H345Z" fill="#868686"/>
<path opacity="0.97" d="M345 155.652V308.704H0V156.014L15.8357 155.652L132.091 254.565L172.533 221.156L213.443 254.632L329.164 155.652H345Z" fill="#858585"/>
<path opacity="0.98" d="M345 155.719V308.77H0V156.09L15.8357 155.719L132.081 254.622L172.533 221.232L213.443 254.698L329.164 155.719H345Z" fill="#848484"/>
<path opacity="0.98" d="M345 155.795V308.847H0V156.157L15.8357 155.795L132.072 254.689L172.533 221.299L213.443 254.765L329.164 155.795H345Z" fill="#838383"/>
<path opacity="0.99" d="M345 155.862V308.913H0V156.224L15.8357 155.862L132.062 254.746L172.533 221.365L213.443 254.832L329.164 155.862H345Z" fill="#828282"/>
<path d="M345 155.928V308.98H0V156.29L15.8357 155.928L132.053 254.813L172.533 221.432L213.443 254.908L329.164 155.928H345Z" fill="#818181"/>
</g>
<path d="M0 156.29H15.8357L132.053 254.813L172.533 221.432L213.443 254.908L329.164 155.928H345V381.914H0V156.29Z" fill="#FF6A52"/>
<g filter="url(#filter0_d_1258_1457)">
<path d="M15.8357 0V140.829V155.928L132.053 254.813L172.533 221.432L213.443 254.908L329.164 155.928V140.829V0H15.8357Z" fill="#FDFDFC"/>
</g>
<path d="M63.438 163.064L61.4168 159.834L84.5172 145.411L86.5384 148.641L76.9092 154.652L92.9356 180.278L89.0935 182.679L73.0671 157.053L63.438 163.064Z" fill="#211815"/>
<path d="M118.381 164.283C118.01 165.007 117.294 165.693 116.246 166.35C115.359 166.903 114.492 167.103 113.653 166.932C112.814 166.76 112.041 166.112 111.336 164.979C111.097 166.703 110.506 168.199 109.572 169.485C108.628 170.761 107.427 171.866 105.978 172.771C105.034 173.362 104.071 173.81 103.089 174.124C102.107 174.438 101.163 174.562 100.258 174.486C99.3518 174.41 98.4843 174.124 97.6548 173.61C96.8254 173.095 96.0817 172.314 95.4239 171.257C94.6803 170.075 94.2799 168.98 94.2131 167.97C94.1464 166.96 94.2989 166.017 94.6612 165.131C95.0235 164.245 95.5574 163.416 96.2533 162.645C96.9493 161.873 97.693 161.13 98.4843 160.406C99.3137 159.625 100.115 158.929 100.906 158.301C101.697 157.672 102.365 157.072 102.898 156.491C103.432 155.909 103.785 155.338 103.957 154.766C104.128 154.195 104.004 153.585 103.604 152.937C103.127 152.185 102.612 151.67 102.04 151.384C101.468 151.108 100.887 150.984 100.296 151.013C99.6951 151.051 99.0944 151.203 98.4938 151.461C97.8932 151.727 97.3211 152.023 96.7777 152.366C95.319 153.28 94.2799 154.309 93.6506 155.471C93.0214 156.633 93.1549 158.005 94.032 159.587L90.5903 161.73C89.8371 160.406 89.4176 159.139 89.3509 157.948C89.2746 156.757 89.4748 155.633 89.942 154.576C90.4091 153.518 91.0765 152.547 91.9631 151.651C92.8498 150.756 93.889 149.946 95.0712 149.203C96.015 148.612 96.997 148.098 98.0076 147.65C99.0182 147.202 100.038 146.955 101.049 146.897C102.059 146.84 103.032 147.05 103.966 147.517C104.891 147.983 105.739 148.822 106.493 150.032L113.204 160.758C113.71 161.568 114.129 162.13 114.453 162.445C114.778 162.759 115.216 162.749 115.76 162.416C116.055 162.235 116.37 161.959 116.713 161.597L118.381 164.264V164.283ZM106.092 157.053C105.863 157.643 105.444 158.234 104.834 158.815C104.224 159.406 103.566 159.977 102.851 160.558C102.145 161.13 101.43 161.721 100.725 162.33C100.019 162.94 99.4376 163.569 98.9896 164.226C98.5319 164.883 98.2745 165.579 98.1887 166.322C98.1029 167.065 98.3317 167.865 98.8751 168.722C99.2279 169.285 99.6379 169.694 100.115 169.932C100.591 170.18 101.077 170.304 101.592 170.323C102.107 170.332 102.641 170.247 103.194 170.047C103.747 169.847 104.29 169.58 104.834 169.246C105.968 168.541 106.836 167.779 107.456 166.97C108.075 166.16 108.485 165.35 108.705 164.569C108.924 163.778 108.981 163.035 108.886 162.33C108.781 161.625 108.581 161.035 108.285 160.558L106.092 157.062V157.053Z" fill="#211815"/>
<path d="M120.526 156.567C121.175 156.891 121.861 157.043 122.586 157.024C123.31 157.005 124.035 156.862 124.788 156.576C125.532 156.3 126.256 155.938 126.962 155.5C127.505 155.166 128.039 154.766 128.582 154.319C129.126 153.871 129.574 153.375 129.946 152.851C130.308 152.328 130.527 151.746 130.585 151.127C130.651 150.508 130.48 149.87 130.07 149.231C129.517 148.345 128.754 147.879 127.791 147.841C126.828 147.802 125.751 147.955 124.569 148.307C123.377 148.66 122.119 149.089 120.793 149.593C119.459 150.108 118.162 150.47 116.885 150.679C115.617 150.889 114.406 150.832 113.262 150.498C112.118 150.165 111.117 149.327 110.278 147.974C109.62 146.926 109.296 145.869 109.296 144.821C109.296 143.773 109.515 142.782 109.963 141.848C110.411 140.915 111.031 140.038 111.813 139.229C112.604 138.419 113.452 137.724 114.368 137.152C115.55 136.409 116.713 135.828 117.838 135.409C118.963 134.989 120.069 134.789 121.146 134.808C122.223 134.827 123.263 135.123 124.254 135.685C125.246 136.247 126.17 137.133 127.048 138.352L123.606 140.496C123.129 139.857 122.605 139.41 122.033 139.143C121.461 138.886 120.86 138.762 120.231 138.781C119.602 138.8 118.972 138.914 118.343 139.143C117.714 139.362 117.113 139.657 116.551 140.01C116.036 140.334 115.54 140.696 115.073 141.105C114.596 141.515 114.206 141.953 113.9 142.43C113.595 142.906 113.414 143.392 113.357 143.897C113.3 144.402 113.433 144.926 113.776 145.459C114.148 146.05 114.663 146.412 115.331 146.545C115.998 146.678 116.732 146.669 117.533 146.516C118.343 146.364 119.201 146.126 120.126 145.802C121.041 145.469 121.966 145.145 122.891 144.83C123.873 144.478 124.855 144.182 125.846 143.935C126.838 143.687 127.791 143.592 128.697 143.639C129.612 143.687 130.47 143.925 131.281 144.354C132.091 144.783 132.816 145.497 133.435 146.497C134.227 147.764 134.617 148.984 134.617 150.146C134.617 151.308 134.35 152.413 133.817 153.452C133.292 154.49 132.549 155.452 131.614 156.319C130.68 157.186 129.679 157.948 128.63 158.605C127.467 159.329 126.285 159.901 125.084 160.311C123.882 160.73 122.7 160.911 121.547 160.863C120.393 160.816 119.287 160.492 118.238 159.892C117.19 159.291 116.236 158.367 115.369 157.1L118.81 154.957C119.306 155.7 119.888 156.224 120.536 156.548L120.526 156.567Z" fill="#211815"/>
<path d="M136.105 124.263L138.002 127.292L133.836 129.893L141.949 142.868C142.197 143.268 142.435 143.573 142.654 143.773C142.874 143.973 143.122 144.087 143.389 144.097C143.665 144.116 143.98 144.04 144.342 143.868C144.704 143.697 145.152 143.449 145.696 143.106L147.269 142.125L149.166 145.154L146.535 146.793C145.648 147.345 144.847 147.764 144.132 148.041C143.417 148.317 142.769 148.412 142.178 148.336C141.587 148.26 141.005 147.983 140.452 147.507C139.89 147.031 139.308 146.307 138.707 145.335L130.394 132.036L126.838 134.256L124.941 131.226L128.497 129.007L124.578 122.738L128.02 120.595L131.938 126.863L136.105 124.263Z" fill="#211815"/>
<path d="M150.51 115.27L152.579 118.585L152.655 118.537C152.503 115.108 153.971 112.431 157.079 110.497C158.452 109.64 159.72 109.106 160.874 108.916C162.027 108.725 163.095 108.782 164.086 109.106C165.078 109.43 165.974 109.983 166.784 110.764C167.595 111.554 168.358 112.507 169.063 113.641L177.663 127.387L174.221 129.531L165.373 115.384C164.563 114.088 163.543 113.307 162.323 113.021C161.093 112.736 159.825 113.012 158.5 113.831C157.451 114.489 156.641 115.222 156.068 116.022C155.506 116.822 155.153 117.689 155.01 118.594C154.867 119.509 154.915 120.443 155.163 121.395C155.401 122.348 155.821 123.3 156.412 124.244L163.791 136.047L160.349 138.19L147.278 117.289L150.52 115.27H150.51Z" fill="#211815"/>
<path d="M201.411 120.757C200.906 123.434 198.99 125.815 195.643 127.902C194.671 128.511 193.613 129.016 192.469 129.436C191.324 129.855 190.19 130.074 189.065 130.102C187.94 130.131 186.863 129.921 185.833 129.474C184.803 129.026 183.907 128.254 183.144 127.159L186.586 125.015C186.996 125.615 187.521 126.025 188.159 126.225C188.789 126.425 189.456 126.501 190.152 126.444C190.848 126.387 191.544 126.225 192.24 125.958C192.936 125.692 193.565 125.387 194.137 125.025C195.271 124.32 196.101 123.52 196.644 122.643C197.178 121.767 197.493 120.824 197.579 119.814C197.664 118.804 197.512 117.747 197.14 116.632C196.759 115.517 196.215 114.384 195.491 113.222L194.633 111.85L194.556 111.897C194.776 113.565 194.471 115.07 193.651 116.422C192.831 117.775 191.744 118.88 190.4 119.719C188.836 120.7 187.301 121.262 185.785 121.424C184.269 121.586 182.82 121.424 181.447 120.957C180.065 120.49 178.778 119.738 177.586 118.699C176.395 117.661 175.355 116.432 174.459 115.003C173.687 113.765 173.048 112.393 172.552 110.878C172.057 109.363 171.856 107.849 171.942 106.315C172.028 104.781 172.486 103.276 173.296 101.818C174.106 100.351 175.413 99.0653 177.224 97.9317C178.549 97.1029 179.941 96.6361 181.409 96.5313C182.878 96.4265 184.279 96.7504 185.633 97.522L185.671 97.4934L183.802 94.5021L187.044 92.4825L198.999 111.602C201.144 115.022 201.955 118.071 201.459 120.747L201.411 120.757ZM191.143 114.098C191.649 113.136 191.897 112.107 191.897 111.04C191.897 109.973 191.715 108.878 191.344 107.763C190.962 106.648 190.476 105.61 189.866 104.638C189.294 103.724 188.617 102.885 187.845 102.133C187.072 101.38 186.224 100.79 185.309 100.37C184.393 99.9513 183.421 99.7607 182.391 99.7988C181.362 99.8369 180.313 100.199 179.236 100.866C178.13 101.552 177.319 102.352 176.795 103.257C176.271 104.162 175.985 105.124 175.918 106.134C175.861 107.144 175.994 108.182 176.347 109.24C176.69 110.297 177.176 111.326 177.796 112.326C178.387 113.269 179.074 114.155 179.846 114.984C180.628 115.813 181.486 116.461 182.42 116.946C183.364 117.432 184.355 117.67 185.404 117.67C186.453 117.67 187.549 117.318 188.674 116.613C189.809 115.908 190.619 115.07 191.124 114.098H191.143Z" fill="#211815"/>
<path d="M210.058 67.0184C212.976 65.1988 215.645 64.5701 218.076 65.1321C220.508 65.6942 222.567 67.3232 224.254 70.0192C225.942 72.7152 226.504 75.2873 225.951 77.7261C225.398 80.1743 223.654 82.2892 220.727 84.0802L211.908 89.5865L219.287 101.39L215.445 103.79L197.398 74.9253L210.058 67.0184ZM217.409 81.6509C219.611 80.3172 220.927 78.8692 221.366 77.326C221.804 75.7827 221.48 74.1441 220.403 72.4198C219.325 70.6956 218 69.6953 216.418 69.4285C214.844 69.1618 212.957 69.7048 210.774 71.0671L203.251 75.7636L209.877 86.357L217.399 81.6605L217.409 81.6509Z" fill="#211815"/>
<path d="M258.757 76.6305C258.385 77.3546 257.67 78.0405 256.622 78.6978C255.735 79.2503 254.867 79.4504 254.028 79.2789C253.189 79.1074 252.417 78.4596 251.712 77.326C251.473 79.0503 250.882 80.5459 249.948 81.832C249.004 83.1085 247.803 84.2136 246.354 85.1186C245.41 85.7092 244.447 86.157 243.465 86.4713C242.483 86.7857 241.539 86.9096 240.624 86.8333C239.718 86.7571 238.851 86.4713 238.021 85.9569C237.192 85.4425 236.448 84.6613 235.79 83.6039C235.047 82.4226 234.646 81.3175 234.579 80.3173C234.513 79.3075 234.656 78.3644 235.028 77.4784C235.39 76.5924 235.924 75.7636 236.62 74.992C237.316 74.2204 238.059 73.4773 238.851 72.7533C239.68 71.9721 240.481 71.2767 241.272 70.648C242.063 70.0192 242.731 69.419 243.265 68.8379C243.799 68.2568 244.151 67.6852 244.323 67.1136C244.495 66.5421 244.371 65.9324 243.97 65.2846C243.494 64.532 242.979 64.0176 242.407 63.7318C241.835 63.4555 241.253 63.3317 240.662 63.3602C240.071 63.3983 239.461 63.5508 238.86 63.808C238.259 64.0747 237.687 64.37 237.144 64.713C235.685 65.618 234.646 66.6564 234.026 67.8186C233.397 68.9808 233.531 70.3526 234.408 71.934L230.966 74.0775C230.213 72.7533 229.803 71.4863 229.727 70.2955C229.65 69.1047 229.851 67.9806 230.318 66.9231C230.785 65.8657 231.452 64.894 232.339 63.9985C233.226 63.103 234.265 62.2933 235.447 61.5502C236.391 60.9596 237.373 60.4452 238.383 59.9974C239.394 59.5497 240.414 59.302 241.425 59.2448C242.445 59.1877 243.417 59.3972 244.342 59.864C245.267 60.3308 246.115 61.1692 246.869 62.379L253.58 73.1058C254.086 73.9155 254.505 74.4776 254.829 74.7919C255.153 75.1063 255.592 75.0968 256.135 74.7634C256.431 74.5824 256.746 74.3061 257.089 73.9441L258.757 76.6115V76.6305ZM246.478 69.4C246.249 69.9906 245.829 70.5813 245.219 71.1624C244.609 71.753 243.951 72.3246 243.236 72.9057C242.521 73.4773 241.816 74.0679 241.11 74.6776C240.405 75.2873 239.823 75.9161 239.375 76.5734C238.917 77.2307 238.66 77.9261 238.574 78.6692C238.488 79.4123 238.717 80.2125 239.261 81.0699C239.613 81.6319 240.023 82.0416 240.5 82.2797C240.977 82.5274 241.463 82.6512 241.978 82.6703C242.492 82.6798 243.026 82.5941 243.579 82.394C244.132 82.194 244.676 81.9368 245.219 81.5938C246.354 80.8889 247.221 80.1267 247.841 79.317C248.461 78.5073 248.871 77.6975 249.09 76.9163C249.309 76.1256 249.366 75.3826 249.261 74.6776C249.157 73.9727 248.956 73.382 248.661 72.9057L246.468 69.4095L246.478 69.4Z" fill="#211815"/>
<path d="M251.245 52.3763L254 56.7775L254.076 56.7298C253.847 54.5102 254.095 52.6144 254.801 51.0521C255.506 49.4802 256.812 48.1465 258.7 47.0415L260.979 50.6806C259.606 51.5379 258.547 52.462 257.813 53.4432C257.079 54.4244 256.641 55.4724 256.498 56.5679C256.364 57.6634 256.479 58.8161 256.86 60.026C257.241 61.2358 257.851 62.5124 258.69 63.8556L264.506 73.1534L261.064 75.2968L247.993 54.3959L251.225 52.3763H251.245Z" fill="#211815"/>
<path d="M296.95 56.3202C297.188 57.5967 297.331 58.7113 297.379 59.6545C297.426 60.5976 297.35 61.4454 297.159 62.1789C296.969 62.922 296.645 63.5698 296.187 64.1319C295.729 64.6939 295.129 65.2083 294.375 65.6847C293.975 65.9419 293.546 66.161 293.107 66.3611C292.669 66.5611 292.221 66.7135 291.754 66.8088L289.78 63.6555C290.162 63.6079 290.572 63.5031 291.029 63.3507C291.477 63.1983 291.84 63.0459 292.106 62.8744C292.802 62.4362 293.289 61.9027 293.546 61.2644C293.803 60.6357 293.861 59.9307 293.718 59.1591L292.936 54.7579L271.647 39.1536L275.527 36.7243L292.326 50.0137L292.412 49.9661L287.587 29.1985L291.229 26.9217L296.94 56.2916L296.95 56.3202Z" fill="#211815"/>
<path d="M139.07 116.318C137.706 116.022 136.839 114.679 137.144 113.317C137.439 111.955 138.784 111.088 140.147 111.393C141.51 111.688 142.378 113.031 142.073 114.393C141.777 115.756 140.433 116.623 139.07 116.318Z" fill="#CF9237"/>
<path d="M139.346 115.032C138.688 114.889 138.278 114.241 138.421 113.584C138.564 112.926 139.213 112.517 139.861 112.659C140.519 112.802 140.929 113.45 140.786 114.098C140.643 114.755 139.994 115.165 139.337 115.022" fill="#FFFFFE"/>
<path d="M135.323 117.556C134.703 116.308 135.218 114.793 136.467 114.174C137.716 113.555 139.232 114.069 139.851 115.317C140.471 116.565 139.956 118.08 138.707 118.699C137.458 119.319 135.943 118.804 135.323 117.556Z" fill="#CF9237"/>
<path d="M136.496 116.975C136.2 116.375 136.448 115.641 137.049 115.346C137.649 115.051 138.374 115.298 138.679 115.899C138.974 116.499 138.726 117.223 138.126 117.528C137.525 117.823 136.801 117.575 136.496 116.975Z" fill="#FFFFFE"/>
<path d="M132.015 115.403C132.606 114.146 134.112 113.603 135.371 114.193C136.629 114.784 137.172 116.289 136.581 117.547C135.99 118.804 134.484 119.347 133.225 118.756C131.967 118.166 131.424 116.661 132.015 115.403Z" fill="#CF9237"/>
<path d="M133.206 115.956C133.492 115.346 134.217 115.089 134.818 115.375C135.428 115.66 135.685 116.384 135.399 116.985C135.113 117.594 134.389 117.851 133.788 117.566C133.178 117.28 132.92 116.556 133.206 115.956Z" fill="#FFFFFE"/>
<path d="M131.643 111.478C132.997 111.154 134.36 111.993 134.684 113.345C135.008 114.698 134.169 116.06 132.816 116.384C131.462 116.708 130.098 115.87 129.774 114.517C129.45 113.164 130.289 111.802 131.643 111.478Z" fill="#CF9237"/>
<path d="M131.948 112.745C132.596 112.593 133.254 112.993 133.416 113.641C133.569 114.288 133.168 114.946 132.52 115.108C131.872 115.26 131.214 114.86 131.052 114.212C130.899 113.564 131.3 112.907 131.948 112.745Z" fill="#FFFFFE"/>
<path d="M134.474 108.735C135.571 109.592 135.771 111.173 134.913 112.278C134.055 113.374 132.472 113.574 131.366 112.717C130.27 111.859 130.07 110.278 130.928 109.173C131.786 108.068 133.368 107.877 134.474 108.735Z" fill="#CF9237"/>
<path d="M133.674 109.764C134.198 110.173 134.293 110.935 133.883 111.469C133.473 111.993 132.711 112.088 132.177 111.678C131.652 111.269 131.557 110.507 131.967 109.973C132.377 109.449 133.14 109.354 133.674 109.764Z" fill="#FFFFFE"/>
<path d="M138.393 109.24C138.412 110.63 137.287 111.774 135.895 111.793C134.503 111.812 133.359 110.688 133.349 109.297C133.33 107.906 134.455 106.763 135.847 106.753C137.239 106.734 138.383 107.858 138.393 109.249" fill="#CF9237"/>
<path d="M137.087 109.249C137.087 109.916 136.553 110.468 135.885 110.478C135.218 110.478 134.665 109.945 134.656 109.278C134.656 108.611 135.189 108.058 135.857 108.049C136.524 108.049 137.077 108.582 137.087 109.249Z" fill="#FFFFFE"/>
<path d="M140.433 112.612C139.356 113.488 137.764 113.326 136.886 112.25C136.009 111.173 136.171 109.582 137.249 108.706C138.326 107.83 139.918 107.992 140.795 109.068C141.672 110.145 141.51 111.735 140.433 112.612Z" fill="#CF9237"/>
<path d="M139.613 111.602C139.089 112.021 138.326 111.945 137.907 111.431C137.487 110.907 137.563 110.144 138.078 109.725C138.593 109.306 139.365 109.382 139.785 109.897C140.204 110.421 140.128 111.183 139.613 111.602Z" fill="#FFFFFE"/>
<path d="M23.968 339.16C22.1375 338.264 20.0877 337.769 17.9236 337.769C16.36 337.769 14.8632 338.026 13.4713 338.502C9.05712 340.008 5.64402 343.685 4.51903 348.267C4.26161 349.324 4.11861 350.42 4.11861 351.563C4.11861 359.184 10.2965 365.357 17.9236 365.357C25.1121 365.357 31.023 359.861 31.6618 352.849C31.6999 352.43 31.719 352.001 31.719 351.563C31.719 346.114 28.5538 341.408 23.968 339.16Z" fill="#F8F5DE"/>
<path d="M19.8113 356.965C19.4013 356.965 18.9914 356.86 18.6195 356.66C18.1905 356.431 17.6471 356.431 17.2181 356.66C16.8462 356.86 16.4458 356.965 16.0359 356.965C15.2922 356.965 14.5867 356.631 14.11 356.05C13.6334 355.478 13.4427 354.754 13.5761 354.011C13.5952 353.926 13.6048 353.83 13.6048 353.745C13.6048 353.345 13.4427 352.954 13.1471 352.687C12.6418 352.211 12.3654 351.573 12.3654 350.887C12.3654 349.61 13.2806 348.572 14.5391 348.4C14.7774 348.372 15.0158 348.276 15.2064 348.134C15.3971 347.991 15.5592 347.8 15.6641 347.581C16.0835 346.705 16.9511 346.162 17.9236 346.162C18.896 346.162 19.7541 346.705 20.1735 347.581C20.3928 348.029 20.8123 348.334 21.3081 348.4C22.5665 348.572 23.4818 349.62 23.4818 350.887C23.4818 351.563 23.2053 352.201 22.7 352.687C22.414 352.963 22.2424 353.354 22.2424 353.754C22.2424 353.84 22.2424 353.926 22.271 354.021C22.2996 354.183 22.3091 354.335 22.3091 354.488C22.3091 355.364 21.8515 356.164 21.0793 356.622C20.6884 356.86 20.2498 356.974 19.8113 356.974V356.965Z" fill="#EC6852"/>
<path d="M17.9236 350.334C17.0751 350.334 16.3886 351.02 16.3886 351.868C16.3886 352.716 17.0751 353.402 17.9236 353.402C18.7721 353.402 19.4585 352.716 19.4585 351.868C19.4585 351.02 18.7721 350.334 17.9236 350.334Z" fill="#FDFDFC"/>
<path d="M53.6372 352.478C51.7495 351.554 49.633 351.039 47.4021 351.039C45.7909 351.039 44.2464 351.306 42.8068 351.801C38.2496 353.354 34.7317 357.155 33.5781 361.871C33.3111 362.957 33.1681 364.1 33.1681 365.262C33.1681 373.121 39.5462 379.485 47.4021 379.485C54.8194 379.485 60.9115 373.817 61.5789 366.586C61.617 366.148 61.6361 365.71 61.6361 365.262C61.6361 359.642 58.3755 354.783 53.6372 352.468V352.478Z" fill="#F8F5DE"/>
<path d="M49.347 370.845C48.9275 370.845 48.508 370.74 48.1171 370.53C47.6786 370.292 47.1161 370.292 46.6775 370.53C46.2962 370.74 45.8767 370.845 45.4572 370.845C44.6945 370.845 43.9699 370.502 43.4646 369.901C42.9689 369.311 42.7782 368.568 42.9212 367.796C42.9403 367.701 42.9498 367.615 42.9498 367.52C42.9498 367.11 42.7782 366.71 42.4827 366.424C41.9678 365.929 41.6818 365.272 41.6818 364.567C41.6818 363.252 42.6257 362.176 43.9223 362.004C44.1701 361.975 44.4085 361.88 44.6182 361.728C44.8184 361.585 44.9805 361.385 45.0949 361.156C45.5335 360.251 46.4201 359.699 47.4212 359.699C48.4222 359.699 49.3089 360.261 49.7474 361.156C49.9667 361.623 50.4053 361.937 50.9105 362.004C52.2071 362.176 53.151 363.262 53.151 364.567C53.151 365.272 52.865 365.929 52.3501 366.415C52.0546 366.701 51.883 367.101 51.883 367.51C51.883 367.606 51.883 367.691 51.9116 367.787C51.9402 367.949 51.9593 368.111 51.9593 368.263C51.9593 369.168 51.4826 369.997 50.6913 370.464C50.2813 370.702 49.8332 370.826 49.3756 370.826L49.347 370.845Z" fill="#EC6852"/>
<path d="M47.4021 364.005C46.525 364.005 45.8195 364.719 45.8195 365.586C45.8195 366.453 46.5345 367.167 47.4021 367.167C48.2697 367.167 48.9847 366.453 48.9847 365.586C48.9847 364.719 48.2697 364.005 47.4021 364.005Z" fill="#FDFDFC"/>
<path d="M183.736 333.406C171.914 333.406 162.294 323.794 162.294 311.981C162.294 300.168 171.914 290.556 183.736 290.556C195.558 290.556 205.177 300.168 205.177 311.981C205.177 323.794 195.558 333.406 183.736 333.406Z" fill="#F8F5DE"/>
<path d="M198.999 311.981C199.59 311.695 200.115 311.276 200.525 310.733C201.325 309.675 201.573 308.342 201.221 307.075C201.097 306.646 200.963 306.208 200.801 305.789C200.649 305.379 200.477 304.95 200.286 304.531C199.743 303.321 198.694 302.464 197.398 302.169C196.73 302.016 196.063 302.035 195.424 302.197C195.691 301.597 195.824 300.94 195.796 300.263C195.729 298.939 195.062 297.758 193.975 297.015C193.584 296.748 193.203 296.51 192.831 296.291C192.459 296.072 192.049 295.862 191.63 295.653C190.438 295.081 189.075 295.1 187.902 295.7C187.292 296.015 186.786 296.453 186.405 296.986C186.233 296.357 185.909 295.767 185.442 295.271C184.546 294.3 183.268 293.823 181.953 293.957C181.467 294.004 181.028 294.071 180.609 294.147C180.16 294.224 179.712 294.319 179.283 294.433C177.996 294.757 176.967 295.643 176.452 296.862C176.185 297.491 176.08 298.158 176.137 298.806C175.594 298.434 174.974 298.196 174.297 298.11C172.981 297.948 171.704 298.396 170.779 299.339C170.465 299.663 170.15 300.006 169.864 300.349C169.578 300.692 169.301 301.054 169.034 301.416C168.262 302.493 168.043 303.826 168.434 305.093C168.634 305.741 168.987 306.322 169.444 306.789C168.796 306.856 168.157 307.065 167.585 307.437C166.47 308.151 165.783 309.323 165.679 310.638C165.64 311.104 165.631 311.562 165.631 311.99C165.631 312.419 165.65 312.876 165.679 313.343C165.774 314.658 166.47 315.83 167.585 316.544C168.157 316.916 168.796 317.125 169.454 317.182C168.987 317.649 168.644 318.23 168.434 318.887C168.043 320.154 168.262 321.488 169.034 322.565C169.301 322.936 169.578 323.289 169.864 323.632C170.15 323.975 170.455 324.308 170.779 324.641C171.58 325.461 172.648 325.908 173.763 325.908C173.944 325.908 174.116 325.899 174.297 325.87C174.974 325.785 175.603 325.546 176.137 325.175C176.089 325.832 176.185 326.49 176.452 327.118C176.967 328.338 177.996 329.224 179.283 329.548C179.722 329.662 180.17 329.757 180.609 329.833C181.038 329.91 181.476 329.967 181.953 330.024C182.096 330.043 182.239 330.043 182.382 330.043C183.545 330.043 184.641 329.567 185.442 328.7C185.909 328.204 186.233 327.614 186.405 326.985C186.786 327.518 187.292 327.966 187.902 328.271C188.502 328.576 189.16 328.738 189.809 328.738C190.428 328.738 191.048 328.595 191.63 328.319C192.049 328.119 192.449 327.899 192.831 327.68C193.212 327.461 193.584 327.223 193.984 326.956C195.081 326.213 195.748 325.022 195.805 323.708C195.844 323.031 195.71 322.374 195.434 321.774C195.767 321.86 196.11 321.907 196.463 321.907C196.778 321.907 197.092 321.869 197.407 321.803C198.694 321.507 199.752 320.65 200.296 319.44C200.487 319.021 200.658 318.592 200.811 318.183C200.963 317.754 201.106 317.325 201.23 316.896C201.592 315.62 201.335 314.286 200.534 313.238C200.124 312.695 199.6 312.276 199.009 311.99L198.999 311.981ZM183.03 313.238C182.735 313.067 182.506 312.791 182.391 312.476C182.334 312.314 182.306 312.152 182.306 311.981C182.306 311.809 182.334 311.638 182.391 311.485C182.506 311.162 182.735 310.895 183.03 310.723C183.326 310.552 183.659 310.495 184.012 310.552C184.346 310.609 184.651 310.79 184.87 311.047C185.089 311.304 185.213 311.638 185.213 311.981C185.213 312.324 185.089 312.657 184.87 312.914C184.651 313.181 184.346 313.353 184.012 313.41C183.669 313.467 183.326 313.41 183.03 313.238Z" fill="#FF6A52"/>
<path d="M145.047 351.192C145.267 351.153 145.486 351.134 145.705 351.087C147.707 350.658 149.099 349.486 149.891 347.6C150.262 346.705 150.358 345.771 150.234 344.818C150.234 344.79 150.234 344.761 150.234 344.723C150.234 344.694 150.234 344.675 150.224 344.618C150.167 344.656 150.129 344.685 150.091 344.723C149.738 345.018 149.385 345.323 149.033 345.619C148.813 345.809 148.642 345.809 148.413 345.619C147.898 345.171 147.383 344.723 146.878 344.275C146.811 344.218 146.754 344.171 146.678 344.104C146.468 344.285 146.258 344.466 146.048 344.647C145.677 344.971 145.314 345.295 144.943 345.609C144.723 345.8 144.542 345.8 144.313 345.609C143.76 345.133 143.217 344.647 142.664 344.171C142.635 344.152 142.607 344.123 142.578 344.094C142.311 344.333 142.044 344.561 141.777 344.79C141.472 345.057 141.158 345.333 140.853 345.6C140.614 345.8 140.452 345.8 140.214 345.6C139.861 345.304 139.518 345.009 139.165 344.714C139.127 344.685 139.089 344.656 139.032 344.609C139.012 344.837 138.984 345.047 138.974 345.257C138.812 347.981 140.738 350.487 143.408 351.058C143.675 351.115 143.941 351.144 144.208 351.192H145.047Z" fill="#F5F2DE"/>
<path d="M144.313 337.769C144.075 337.826 143.827 337.864 143.589 337.94C142.902 338.159 142.33 338.55 141.815 339.036C140.833 339.969 140.147 341.103 139.661 342.351C139.489 342.77 139.375 343.218 139.241 343.656C139.232 343.694 139.241 343.761 139.279 343.78C139.68 344.132 140.09 344.475 140.49 344.818C140.5 344.828 140.519 344.837 140.538 344.847C140.843 344.58 141.139 344.323 141.444 344.056C141.73 343.809 142.006 343.561 142.292 343.313C142.483 343.151 142.673 343.142 142.864 343.313C143.427 343.799 143.98 344.285 144.542 344.78C144.571 344.799 144.599 344.828 144.628 344.847C144.981 344.542 145.324 344.247 145.667 343.942C145.896 343.742 146.125 343.542 146.354 343.342C146.582 343.142 146.763 343.142 146.992 343.342C147.545 343.828 148.098 344.304 148.651 344.79C148.67 344.809 148.699 344.828 148.727 344.847C149.042 344.58 149.357 344.313 149.681 344.037C149.776 343.961 149.862 343.875 149.957 343.799C150.024 343.751 150.043 343.704 150.024 343.618C149.614 342.075 148.928 340.674 147.869 339.465C147.307 338.817 146.649 338.293 145.839 337.988C145.581 337.893 145.305 337.855 145.028 337.788C145 337.788 144.971 337.769 144.943 337.759C144.733 337.759 144.523 337.759 144.313 337.759V337.769Z" fill="#FDFDFC"/>
<path d="M122.881 351.192C123.101 351.153 123.32 351.134 123.539 351.087C125.541 350.658 126.933 349.486 127.724 347.6C128.096 346.705 128.192 345.771 128.068 344.818C128.068 344.79 128.068 344.761 128.068 344.723C128.068 344.694 128.068 344.675 128.058 344.618C128.001 344.656 127.963 344.685 127.925 344.723C127.572 345.018 127.219 345.323 126.866 345.619C126.647 345.809 126.476 345.809 126.247 345.619C125.732 345.171 125.217 344.723 124.712 344.275C124.645 344.218 124.588 344.171 124.512 344.104C124.302 344.285 124.092 344.466 123.882 344.647C123.511 344.971 123.148 345.295 122.776 345.609C122.557 345.8 122.376 345.8 122.147 345.609C121.594 345.133 121.051 344.647 120.498 344.171C120.469 344.152 120.441 344.123 120.412 344.094C120.145 344.333 119.878 344.561 119.611 344.79C119.306 345.057 118.991 345.333 118.686 345.6C118.448 345.8 118.286 345.8 118.048 345.6C117.695 345.304 117.352 345.009 116.999 344.714C116.961 344.685 116.923 344.656 116.865 344.609C116.846 344.837 116.818 345.047 116.808 345.257C116.646 347.981 118.572 350.487 121.241 351.058C121.508 351.115 121.775 351.144 122.042 351.192H122.881Z" fill="#F5F2DE"/>
<path d="M122.147 337.769C121.909 337.826 121.661 337.864 121.423 337.94C120.736 338.159 120.164 338.55 119.649 339.036C118.667 339.969 117.981 341.103 117.495 342.351C117.323 342.77 117.209 343.218 117.075 343.656C117.066 343.694 117.075 343.761 117.113 343.78C117.514 344.132 117.924 344.475 118.324 344.818C118.334 344.828 118.353 344.837 118.372 344.847C118.677 344.58 118.972 344.323 119.278 344.056C119.564 343.809 119.84 343.561 120.126 343.313C120.317 343.151 120.507 343.142 120.698 343.313C121.261 343.799 121.813 344.285 122.376 344.78C122.405 344.799 122.433 344.828 122.462 344.847C122.815 344.542 123.158 344.247 123.501 343.942C123.73 343.742 123.959 343.542 124.187 343.342C124.416 343.142 124.597 343.142 124.826 343.342C125.379 343.828 125.932 344.304 126.485 344.79C126.504 344.809 126.533 344.828 126.561 344.847C126.876 344.58 127.191 344.313 127.515 344.037C127.61 343.961 127.696 343.875 127.791 343.799C127.858 343.751 127.877 343.704 127.858 343.618C127.448 342.075 126.762 340.674 125.703 339.465C125.141 338.817 124.483 338.293 123.673 337.988C123.415 337.893 123.139 337.855 122.862 337.788C122.834 337.788 122.805 337.769 122.776 337.759C122.567 337.759 122.357 337.759 122.147 337.759V337.769Z" fill="#FDFDFC"/>
<path d="M145.047 379.495C145.267 379.456 145.486 379.437 145.705 379.39C147.707 378.961 149.099 377.789 149.891 375.903C150.262 375.008 150.358 374.074 150.234 373.121C150.234 373.093 150.234 373.064 150.234 373.026C150.234 372.998 150.234 372.979 150.224 372.921C150.167 372.959 150.129 372.988 150.091 373.026C149.738 373.321 149.385 373.626 149.033 373.922C148.813 374.112 148.642 374.112 148.413 373.922C147.898 373.474 147.383 373.026 146.878 372.578C146.811 372.521 146.754 372.474 146.678 372.407C146.468 372.588 146.258 372.769 146.048 372.95C145.677 373.274 145.314 373.598 144.943 373.912C144.723 374.103 144.542 374.103 144.313 373.912C143.76 373.436 143.217 372.95 142.664 372.474C142.635 372.455 142.607 372.426 142.578 372.397C142.311 372.636 142.044 372.864 141.777 373.093C141.472 373.36 141.158 373.636 140.853 373.903C140.614 374.103 140.452 374.103 140.214 373.903C139.861 373.607 139.518 373.312 139.165 373.017C139.127 372.988 139.089 372.959 139.032 372.912C139.012 373.14 138.984 373.35 138.974 373.56C138.812 376.284 140.738 378.79 143.408 379.361C143.675 379.418 143.941 379.447 144.208 379.495H145.047Z" fill="#F5F2DE"/>
<path d="M144.313 366.081C144.075 366.139 143.827 366.177 143.589 366.253C142.902 366.472 142.33 366.863 141.815 367.348C140.833 368.282 140.147 369.416 139.661 370.664C139.489 371.083 139.375 371.53 139.241 371.969C139.232 372.007 139.241 372.073 139.279 372.093C139.68 372.445 140.09 372.788 140.49 373.131C140.5 373.14 140.519 373.15 140.538 373.159C140.843 372.893 141.139 372.636 141.444 372.369C141.73 372.121 142.006 371.873 142.292 371.626C142.483 371.464 142.673 371.454 142.864 371.626C143.427 372.112 143.98 372.597 144.542 373.093C144.571 373.112 144.599 373.14 144.628 373.159C144.981 372.855 145.324 372.559 145.667 372.255C145.896 372.054 146.125 371.854 146.354 371.654C146.582 371.454 146.763 371.454 146.992 371.654C147.545 372.14 148.098 372.616 148.651 373.102C148.67 373.121 148.699 373.14 148.727 373.159C149.042 372.893 149.357 372.626 149.681 372.35C149.776 372.274 149.862 372.188 149.957 372.112C150.024 372.064 150.043 372.016 150.024 371.931C149.614 370.387 148.928 368.987 147.869 367.777C147.307 367.129 146.649 366.605 145.839 366.3C145.581 366.205 145.305 366.167 145.028 366.1C145 366.1 144.971 366.081 144.943 366.072C144.733 366.072 144.523 366.072 144.313 366.072V366.081Z" fill="#FDFDFC"/>
<path d="M122.881 379.495C123.101 379.456 123.32 379.437 123.539 379.39C125.541 378.961 126.933 377.789 127.724 375.903C128.096 375.008 128.192 374.074 128.068 373.121C128.068 373.093 128.068 373.064 128.068 373.026C128.068 372.998 128.068 372.979 128.058 372.921C128.001 372.959 127.963 372.988 127.925 373.026C127.572 373.321 127.219 373.626 126.866 373.922C126.647 374.112 126.476 374.112 126.247 373.922C125.732 373.474 125.217 373.026 124.712 372.578C124.645 372.521 124.588 372.474 124.512 372.407C124.302 372.588 124.092 372.769 123.882 372.95C123.511 373.274 123.148 373.598 122.776 373.912C122.557 374.103 122.376 374.103 122.147 373.912C121.594 373.436 121.051 372.95 120.498 372.474C120.469 372.455 120.441 372.426 120.412 372.397C120.145 372.636 119.878 372.864 119.611 373.093C119.306 373.36 118.991 373.636 118.686 373.903C118.448 374.103 118.286 374.103 118.048 373.903C117.695 373.607 117.352 373.312 116.999 373.017C116.961 372.988 116.923 372.959 116.865 372.912C116.846 373.14 116.818 373.35 116.808 373.56C116.646 376.284 118.572 378.79 121.241 379.361C121.508 379.418 121.775 379.447 122.042 379.495H122.881Z" fill="#F8F5DE"/>
<path d="M122.147 366.081C121.909 366.139 121.661 366.177 121.423 366.253C120.736 366.472 120.164 366.863 119.649 367.348C118.667 368.282 117.981 369.416 117.495 370.664C117.323 371.083 117.209 371.53 117.075 371.969C117.066 372.007 117.075 372.073 117.113 372.093C117.514 372.445 117.924 372.788 118.324 373.131C118.334 373.14 118.353 373.15 118.372 373.159C118.677 372.893 118.972 372.636 119.278 372.369C119.564 372.121 119.84 371.873 120.126 371.626C120.317 371.464 120.507 371.454 120.698 371.626C121.261 372.112 121.813 372.597 122.376 373.093C122.405 373.112 122.433 373.14 122.462 373.159C122.815 372.855 123.158 372.559 123.501 372.255C123.73 372.054 123.959 371.854 124.187 371.654C124.416 371.454 124.597 371.454 124.826 371.654C125.379 372.14 125.932 372.616 126.485 373.102C126.504 373.121 126.533 373.14 126.561 373.159C126.876 372.893 127.191 372.626 127.515 372.35C127.61 372.274 127.696 372.188 127.791 372.112C127.858 372.064 127.877 372.016 127.858 371.931C127.448 370.387 126.762 368.987 125.703 367.777C125.141 367.129 124.483 366.605 123.673 366.3C123.415 366.205 123.139 366.167 122.862 366.1C122.834 366.1 122.805 366.081 122.776 366.072C122.567 366.072 122.357 366.072 122.147 366.072V366.081Z" fill="#FDFDFC"/>
<path d="M157.308 364.995C157.527 364.957 157.746 364.938 157.966 364.891C159.968 364.462 161.36 363.29 162.151 361.404C162.523 360.508 162.618 359.575 162.494 358.622C162.494 358.594 162.494 358.565 162.494 358.527C162.494 358.498 162.494 358.479 162.485 358.422C162.428 358.46 162.389 358.489 162.351 358.527C161.999 358.822 161.646 359.127 161.293 359.422C161.074 359.613 160.902 359.613 160.673 359.422C160.158 358.975 159.644 358.527 159.138 358.079C159.072 358.022 159.014 357.974 158.938 357.908C158.728 358.089 158.519 358.27 158.309 358.451C157.937 358.775 157.575 359.099 157.203 359.413C156.984 359.603 156.803 359.603 156.574 359.413C156.021 358.937 155.477 358.451 154.924 357.974C154.896 357.955 154.867 357.927 154.839 357.898C154.572 358.136 154.305 358.365 154.038 358.594C153.733 358.86 153.418 359.137 153.113 359.403C152.875 359.603 152.713 359.603 152.474 359.403C152.121 359.108 151.778 358.813 151.426 358.517C151.387 358.489 151.349 358.46 151.292 358.413C151.273 358.641 151.244 358.851 151.235 359.06C151.073 361.785 152.999 364.29 155.668 364.862C155.935 364.919 156.202 364.948 156.469 364.995H157.308Z" fill="#F5F2DE"/>
<path d="M156.574 351.582C156.335 351.639 156.088 351.677 155.849 351.754C155.163 351.973 154.591 352.363 154.076 352.849C153.094 353.783 152.408 354.916 151.921 356.164C151.75 356.584 151.635 357.031 151.502 357.469C151.492 357.508 151.502 357.574 151.54 357.593C151.94 357.946 152.35 358.289 152.751 358.632C152.76 358.641 152.779 358.651 152.798 358.66C153.103 358.394 153.399 358.136 153.704 357.87C153.99 357.622 154.267 357.374 154.553 357.127C154.743 356.965 154.934 356.955 155.125 357.127C155.687 357.612 156.24 358.098 156.803 358.594C156.831 358.613 156.86 358.641 156.888 358.66C157.241 358.355 157.584 358.06 157.928 357.755C158.156 357.555 158.385 357.355 158.614 357.155C158.843 356.955 159.024 356.955 159.253 357.155C159.806 357.641 160.359 358.117 160.912 358.603C160.931 358.622 160.959 358.641 160.988 358.66C161.303 358.394 161.617 358.127 161.941 357.851C162.037 357.774 162.122 357.689 162.218 357.612C162.285 357.565 162.304 357.517 162.285 357.431C161.875 355.888 161.188 354.488 160.13 353.278C159.567 352.63 158.91 352.106 158.099 351.801C157.842 351.706 157.565 351.668 157.289 351.601C157.26 351.601 157.232 351.582 157.203 351.573C156.993 351.573 156.784 351.573 156.574 351.573V351.582Z" fill="#FDFDFC"/>
<path d="M132.796 364.995C133.016 364.957 133.235 364.938 133.454 364.891C135.456 364.462 136.848 363.29 137.64 361.404C138.011 360.508 138.107 359.575 137.983 358.622C137.983 358.594 137.983 358.565 137.983 358.527C137.983 358.498 137.983 358.479 137.973 358.422C137.916 358.46 137.878 358.489 137.84 358.527C137.487 358.822 137.134 359.127 136.782 359.422C136.562 359.613 136.391 359.613 136.162 359.422C135.647 358.975 135.132 358.527 134.627 358.079C134.56 358.022 134.503 357.974 134.427 357.908C134.217 358.089 134.007 358.27 133.797 358.451C133.426 358.775 133.063 359.099 132.692 359.413C132.472 359.603 132.291 359.603 132.062 359.413C131.509 358.937 130.966 358.451 130.413 357.974C130.384 357.955 130.356 357.927 130.327 357.898C130.06 358.136 129.793 358.365 129.526 358.594C129.221 358.86 128.907 359.137 128.602 359.403C128.363 359.603 128.201 359.603 127.963 359.403C127.61 359.108 127.267 358.813 126.914 358.517C126.876 358.489 126.838 358.46 126.781 358.413C126.762 358.641 126.733 358.851 126.723 359.06C126.561 361.785 128.487 364.29 131.157 364.862C131.424 364.919 131.691 364.948 131.957 364.995H132.796Z" fill="#F5F2DE"/>
<path d="M132.062 351.582C131.824 351.639 131.576 351.677 131.338 351.754C130.651 351.973 130.079 352.363 129.564 352.849C128.583 353.783 127.896 354.916 127.41 356.164C127.238 356.584 127.124 357.031 126.99 357.469C126.981 357.508 126.99 357.574 127.029 357.593C127.429 357.946 127.839 358.289 128.239 358.632C128.249 358.641 128.268 358.651 128.287 358.66C128.592 358.394 128.888 358.136 129.193 357.87C129.479 357.622 129.755 357.374 130.041 357.127C130.232 356.965 130.423 356.955 130.613 357.127C131.176 357.612 131.729 358.098 132.291 358.594C132.32 358.613 132.348 358.641 132.377 358.66C132.73 358.355 133.073 358.06 133.416 357.755C133.645 357.555 133.874 357.355 134.103 357.155C134.331 356.955 134.513 356.955 134.741 357.155C135.294 357.641 135.847 358.117 136.4 358.603C136.419 358.622 136.448 358.641 136.476 358.66C136.791 358.394 137.106 358.127 137.43 357.851C137.525 357.774 137.611 357.689 137.706 357.612C137.773 357.565 137.792 357.517 137.773 357.431C137.363 355.888 136.677 354.488 135.618 353.278C135.056 352.63 134.398 352.106 133.588 351.801C133.33 351.706 133.054 351.668 132.777 351.601C132.749 351.601 132.72 351.582 132.692 351.573C132.482 351.573 132.272 351.573 132.062 351.573V351.582Z" fill="#FDFDFC"/>
<path d="M226.504 339.465C226.38 338.883 226.104 338.426 225.799 338.207C225.961 337.321 226.743 336.645 227.677 336.645C228.735 336.645 229.584 337.502 229.584 338.55C229.584 339.598 228.726 340.455 227.677 340.455C227.257 340.455 226.876 340.322 226.561 340.093C226.561 339.893 226.552 339.674 226.504 339.445V339.465Z" fill="#F8F5DE"/>
<path d="M229.86 341.275C230.232 340.817 230.423 340.322 230.404 339.941C231.204 339.512 232.215 339.703 232.797 340.436C233.454 341.265 233.321 342.465 232.492 343.123C231.662 343.78 230.461 343.647 229.803 342.818C229.546 342.494 229.412 342.113 229.393 341.722C229.555 341.598 229.717 341.456 229.86 341.275Z" fill="#F8F5DE"/>
<path d="M230.68 345.037C231.271 345.047 231.776 344.885 232.062 344.628C232.892 344.99 233.378 345.895 233.168 346.8C232.93 347.829 231.91 348.476 230.88 348.238C229.851 348 229.202 346.981 229.441 345.952C229.536 345.542 229.755 345.209 230.041 344.952C230.242 344.999 230.451 345.037 230.68 345.037Z" fill="#F8F5DE"/>
<path d="M228.144 348.086C228.506 348.553 228.954 348.848 229.326 348.915C229.565 349.782 229.155 350.725 228.316 351.134C227.362 351.592 226.218 351.192 225.761 350.239C225.303 349.286 225.703 348.143 226.657 347.686C227.029 347.505 227.439 347.467 227.82 347.533C227.906 347.714 228.011 347.905 228.154 348.086H228.144Z" fill="#F8F5DE"/>
<path d="M223.606 347.648C223.463 348.219 223.511 348.753 223.701 349.086C223.167 349.81 222.176 350.086 221.337 349.677C220.384 349.22 219.983 348.076 220.441 347.124C220.898 346.171 222.042 345.771 222.996 346.228C223.368 346.409 223.654 346.695 223.844 347.038C223.749 347.219 223.673 347.419 223.616 347.648H223.606Z" fill="#F8F5DE"/>
<path d="M222.548 340.703C222.071 340.465 221.594 340.398 221.27 340.493C220.736 339.884 220.698 338.96 221.223 338.293C221.814 337.55 222.9 337.426 223.644 338.016C224.388 338.607 224.512 339.693 223.921 340.436C223.692 340.731 223.377 340.922 223.043 341.017C222.9 340.903 222.738 340.789 222.557 340.693L222.548 340.703Z" fill="#F8F5DE"/>
<path d="M221.346 344.38C220.86 344.599 220.517 344.933 220.384 345.247C219.573 345.285 218.82 344.733 218.639 343.913C218.429 342.989 219.011 342.065 219.935 341.856C220.86 341.646 221.785 342.227 221.995 343.151C222.081 343.513 222.033 343.875 221.899 344.199C221.718 344.237 221.537 344.294 221.346 344.38Z" fill="#F8F5DE"/>
<path d="M255.744 339.465C255.621 338.883 255.344 338.426 255.039 338.207C255.201 337.321 255.983 336.645 256.917 336.645C257.975 336.645 258.824 337.502 258.824 338.55C258.824 339.598 257.966 340.455 256.917 340.455C256.498 340.455 256.116 340.322 255.802 340.093C255.802 339.893 255.792 339.674 255.744 339.445V339.465Z" fill="white"/>
<path d="M259.1 341.275C259.472 340.817 259.663 340.322 259.644 339.941C260.445 339.512 261.455 339.703 262.037 340.436C262.695 341.265 262.561 342.465 261.732 343.123C260.902 343.78 259.701 343.647 259.043 342.818C258.786 342.494 258.652 342.113 258.633 341.722C258.795 341.598 258.957 341.456 259.1 341.275Z" fill="white"/>
<path d="M259.92 345.037C260.511 345.047 261.017 344.885 261.303 344.628C262.132 344.99 262.618 345.895 262.409 346.8C262.17 347.829 261.15 348.477 260.12 348.238C259.091 348 258.443 346.981 258.681 345.952C258.776 345.542 258.995 345.209 259.282 344.952C259.482 344.999 259.691 345.037 259.92 345.037Z" fill="white"/>
<path d="M257.384 348.086C257.747 348.553 258.195 348.848 258.566 348.915C258.805 349.782 258.395 350.725 257.556 351.134C256.603 351.592 255.458 351.192 255.001 350.239C254.543 349.286 254.944 348.143 255.897 347.686C256.269 347.505 256.679 347.467 257.06 347.533C257.146 347.714 257.251 347.905 257.394 348.086H257.384Z" fill="white"/>
<path d="M252.846 347.648C252.703 348.219 252.751 348.753 252.942 349.086C252.408 349.81 251.416 350.086 250.577 349.677C249.624 349.22 249.223 348.076 249.681 347.124C250.139 346.171 251.283 345.771 252.236 346.228C252.608 346.409 252.894 346.695 253.085 347.038C252.989 347.219 252.913 347.419 252.856 347.648H252.846Z" fill="white"/>
<path d="M251.778 340.703C251.302 340.465 250.825 340.398 250.501 340.493C249.967 339.884 249.929 338.96 250.453 338.293C251.044 337.55 252.131 337.426 252.875 338.017C253.618 338.607 253.742 339.693 253.151 340.436C252.922 340.732 252.608 340.922 252.274 341.017C252.131 340.903 251.969 340.789 251.788 340.693L251.778 340.703Z" fill="white"/>
<path d="M250.587 344.38C250.1 344.599 249.757 344.933 249.624 345.247C248.813 345.285 248.06 344.733 247.879 343.913C247.669 342.989 248.251 342.065 249.176 341.856C250.1 341.646 251.025 342.227 251.235 343.151C251.321 343.513 251.273 343.875 251.14 344.199C250.959 344.237 250.777 344.294 250.587 344.38Z" fill="white"/>
<path d="M241.12 353.554C240.996 352.973 240.719 352.516 240.414 352.297C240.576 351.411 241.358 350.734 242.292 350.734C243.351 350.734 244.199 351.592 244.199 352.64C244.199 353.687 243.341 354.545 242.292 354.545C241.873 354.545 241.491 354.411 241.177 354.183C241.177 353.983 241.167 353.764 241.12 353.535V353.554Z" fill="#F8F5DE"/>
<path d="M244.485 355.364C244.857 354.907 245.048 354.411 245.028 354.03C245.829 353.602 246.84 353.792 247.421 354.526C248.079 355.355 247.946 356.555 247.116 357.212C246.287 357.87 245.086 357.736 244.428 356.907C244.17 356.583 244.037 356.202 244.018 355.812C244.18 355.688 244.342 355.545 244.485 355.364Z" fill="#F8F5DE"/>
<path d="M245.295 359.127C245.887 359.137 246.392 358.975 246.678 358.717C247.507 359.079 247.993 359.984 247.784 360.889C247.545 361.918 246.525 362.566 245.496 362.328C244.466 362.09 243.818 361.07 244.056 360.042C244.151 359.632 244.371 359.298 244.657 359.041C244.857 359.089 245.067 359.127 245.295 359.127Z" fill="#F8F5DE"/>
<path d="M242.759 362.175C243.122 362.642 243.57 362.938 243.942 363.004C244.18 363.871 243.77 364.814 242.931 365.224C241.978 365.681 240.834 365.281 240.376 364.328C239.918 363.376 240.319 362.233 241.272 361.775C241.644 361.594 242.054 361.556 242.435 361.623C242.521 361.804 242.626 361.994 242.769 362.175H242.759Z" fill="#F8F5DE"/>
<path d="M238.221 361.737C238.078 362.309 238.126 362.842 238.317 363.176C237.783 363.9 236.791 364.176 235.952 363.766C234.999 363.309 234.598 362.166 235.056 361.213C235.514 360.261 236.658 359.861 237.611 360.318C237.983 360.499 238.269 360.785 238.46 361.128C238.364 361.309 238.288 361.509 238.231 361.737H238.221Z" fill="#F8F5DE"/>
<path d="M237.163 354.783C236.686 354.545 236.21 354.478 235.886 354.573C235.352 353.964 235.314 353.04 235.838 352.373C236.429 351.63 237.516 351.506 238.259 352.097C239.003 352.687 239.127 353.773 238.536 354.516C238.307 354.812 237.993 355.002 237.659 355.097C237.516 354.983 237.354 354.869 237.173 354.773L237.163 354.783Z" fill="#F8F5DE"/>
<path d="M235.971 358.47C235.485 358.689 235.142 359.022 235.008 359.337C234.198 359.375 233.445 358.822 233.264 358.003C233.054 357.079 233.636 356.155 234.56 355.945C235.485 355.736 236.41 356.317 236.62 357.241C236.705 357.603 236.658 357.965 236.524 358.289C236.343 358.327 236.162 358.384 235.971 358.47Z" fill="#F8F5DE"/>
<path d="M226.504 367.644C226.38 367.063 226.104 366.605 225.799 366.386C225.961 365.5 226.743 364.824 227.677 364.824C228.735 364.824 229.584 365.681 229.584 366.729C229.584 367.777 228.726 368.634 227.677 368.634C227.257 368.634 226.876 368.501 226.561 368.272C226.561 368.072 226.552 367.853 226.504 367.625V367.644Z" fill="#F8F5DE"/>
<path d="M229.86 369.454C230.232 368.996 230.423 368.501 230.404 368.12C231.204 367.691 232.215 367.882 232.797 368.615C233.454 369.444 233.321 370.645 232.492 371.302C231.662 371.959 230.461 371.826 229.803 370.997C229.546 370.673 229.412 370.292 229.393 369.901C229.555 369.778 229.717 369.635 229.86 369.454Z" fill="#F8F5DE"/>
<path d="M230.68 373.217C231.271 373.226 231.776 373.064 232.062 372.807C232.892 373.169 233.378 374.074 233.168 374.979C232.93 376.008 231.91 376.656 230.88 376.418C229.851 376.179 229.202 375.16 229.441 374.131C229.536 373.722 229.755 373.388 230.041 373.131C230.242 373.179 230.451 373.217 230.68 373.217Z" fill="#F8F5DE"/>
<path d="M228.144 376.265C228.506 376.732 228.954 377.027 229.326 377.094C229.565 377.961 229.155 378.904 228.316 379.314C227.362 379.771 226.218 379.371 225.761 378.418C225.303 377.465 225.703 376.322 226.657 375.865C227.029 375.684 227.439 375.646 227.82 375.713C227.906 375.894 228.011 376.084 228.154 376.265H228.144Z" fill="#F8F5DE"/>
<path d="M223.606 375.827C223.463 376.398 223.511 376.932 223.701 377.265C223.167 377.989 222.176 378.266 221.337 377.856C220.384 377.399 219.983 376.256 220.441 375.303C220.898 374.35 222.042 373.95 222.996 374.407C223.368 374.588 223.654 374.874 223.844 375.217C223.749 375.398 223.673 375.598 223.616 375.827H223.606Z" fill="#F8F5DE"/>
<path d="M222.548 368.873C222.071 368.634 221.594 368.568 221.27 368.663C220.736 368.053 220.698 367.129 221.223 366.462C221.814 365.719 222.9 365.596 223.644 366.186C224.388 366.777 224.512 367.863 223.921 368.606C223.692 368.901 223.377 369.092 223.043 369.187C222.9 369.073 222.738 368.958 222.557 368.863L222.548 368.873Z" fill="#F8F5DE"/>
<path d="M221.346 372.559C220.86 372.778 220.517 373.112 220.384 373.426C219.573 373.464 218.82 372.912 218.639 372.093C218.429 371.168 219.011 370.244 219.935 370.035C220.86 369.825 221.785 370.406 221.995 371.33C222.081 371.692 222.033 372.054 221.899 372.378C221.718 372.416 221.537 372.474 221.346 372.559Z" fill="#F8F5DE"/>
<path d="M255.744 367.644C255.621 367.063 255.344 366.605 255.039 366.386C255.201 365.5 255.983 364.824 256.917 364.824C257.975 364.824 258.824 365.681 258.824 366.729C258.824 367.777 257.966 368.634 256.917 368.634C256.498 368.634 256.116 368.501 255.802 368.272C255.802 368.072 255.792 367.853 255.744 367.625V367.644Z" fill="white"/>
<path d="M259.1 369.454C259.472 368.996 259.663 368.501 259.644 368.12C260.445 367.691 261.455 367.882 262.037 368.615C262.695 369.444 262.561 370.645 261.732 371.302C260.902 371.959 259.701 371.826 259.043 370.997C258.786 370.673 258.652 370.292 258.633 369.901C258.795 369.778 258.957 369.635 259.1 369.454Z" fill="white"/>
<path d="M259.92 373.217C260.511 373.226 261.017 373.064 261.303 372.807C262.132 373.169 262.618 374.074 262.409 374.979C262.17 376.008 261.15 376.656 260.12 376.418C259.091 376.179 258.443 375.16 258.681 374.131C258.776 373.722 258.995 373.388 259.282 373.131C259.482 373.179 259.691 373.217 259.92 373.217Z" fill="white"/>
<path d="M257.384 376.265C257.747 376.732 258.195 377.027 258.566 377.094C258.805 377.961 258.395 378.904 257.556 379.314C256.603 379.771 255.458 379.371 255.001 378.418C254.543 377.465 254.944 376.322 255.897 375.865C256.269 375.684 256.679 375.646 257.06 375.713C257.146 375.894 257.251 376.084 257.394 376.265H257.384Z" fill="white"/>
<path d="M252.846 375.827C252.703 376.398 252.751 376.932 252.942 377.265C252.408 377.989 251.416 378.266 250.577 377.856C249.624 377.399 249.223 376.256 249.681 375.303C250.139 374.35 251.283 373.95 252.236 374.407C252.608 374.588 252.894 374.874 253.085 375.217C252.989 375.398 252.913 375.598 252.856 375.827H252.846Z" fill="white"/>
<path d="M251.778 368.873C251.302 368.634 250.825 368.568 250.501 368.663C249.967 368.053 249.929 367.129 250.453 366.462C251.044 365.719 252.131 365.596 252.875 366.186C253.618 366.777 253.742 367.863 253.151 368.606C252.922 368.901 252.608 369.092 252.274 369.187C252.131 369.073 251.969 368.958 251.788 368.863L251.778 368.873Z" fill="white"/>
<path d="M250.587 372.559C250.1 372.778 249.757 373.112 249.624 373.426C248.813 373.464 248.06 372.912 247.879 372.093C247.669 371.168 248.251 370.244 249.176 370.035C250.1 369.825 251.025 370.406 251.235 371.33C251.321 371.692 251.273 372.054 251.14 372.378C250.959 372.416 250.777 372.474 250.587 372.559Z" fill="white"/>
<path d="M281.352 339.465C281.228 338.883 280.952 338.426 280.647 338.207C280.809 337.321 281.591 336.645 282.525 336.645C283.583 336.645 284.432 337.502 284.432 338.55C284.432 339.598 283.574 340.455 282.525 340.455C282.105 340.455 281.724 340.322 281.409 340.093C281.409 339.893 281.4 339.674 281.352 339.445V339.465Z" fill="#F8F5DE"/>
<path d="M284.708 341.275C285.08 340.817 285.271 340.322 285.252 339.941C286.052 339.512 287.063 339.703 287.645 340.436C288.302 341.265 288.169 342.465 287.34 343.123C286.51 343.78 285.309 343.647 284.651 342.818C284.394 342.494 284.26 342.113 284.241 341.722C284.403 341.598 284.565 341.456 284.708 341.275Z" fill="#F8F5DE"/>
<path d="M285.528 345.037C286.119 345.047 286.624 344.885 286.911 344.628C287.74 344.99 288.226 345.895 288.016 346.8C287.778 347.829 286.758 348.477 285.728 348.238C284.699 348 284.05 346.981 284.289 345.952C284.384 345.542 284.603 345.209 284.889 344.952C285.09 344.999 285.299 345.037 285.528 345.037Z" fill="#F8F5DE"/>
<path d="M282.992 348.086C283.354 348.553 283.802 348.848 284.174 348.915C284.413 349.782 284.003 350.725 283.164 351.134C282.21 351.592 281.066 351.192 280.609 350.239C280.151 349.286 280.551 348.143 281.505 347.686C281.877 347.505 282.287 347.467 282.668 347.533C282.754 347.714 282.859 347.905 283.002 348.086H282.992Z" fill="#F8F5DE"/>
<path d="M278.454 347.648C278.311 348.219 278.359 348.753 278.549 349.086C278.015 349.81 277.024 350.086 276.185 349.677C275.232 349.22 274.831 348.076 275.289 347.124C275.746 346.171 276.89 345.771 277.844 346.228C278.216 346.409 278.502 346.695 278.692 347.038C278.597 347.219 278.521 347.419 278.464 347.648H278.454Z" fill="#F8F5DE"/>
<path d="M277.396 340.703C276.919 340.465 276.442 340.398 276.118 340.493C275.584 339.884 275.546 338.96 276.071 338.293C276.662 337.55 277.748 337.426 278.492 338.017C279.236 338.607 279.36 339.693 278.769 340.436C278.54 340.732 278.225 340.922 277.892 341.017C277.749 340.903 277.586 340.789 277.405 340.693L277.396 340.703Z" fill="#F8F5DE"/>
<path d="M276.195 344.38C275.708 344.599 275.365 344.933 275.232 345.247C274.421 345.285 273.668 344.733 273.487 343.913C273.277 342.989 273.859 342.065 274.783 341.856C275.708 341.646 276.633 342.227 276.843 343.151C276.929 343.513 276.881 343.875 276.747 344.199C276.566 344.237 276.385 344.294 276.195 344.38Z" fill="#F8F5DE"/>
<path d="M266.737 353.554C266.613 352.973 266.337 352.516 266.031 352.297C266.194 351.411 266.975 350.734 267.91 350.734C268.968 350.734 269.816 351.592 269.816 352.64C269.816 353.687 268.958 354.545 267.91 354.545C267.49 354.545 267.109 354.411 266.794 354.183C266.794 353.983 266.785 353.764 266.737 353.535V353.554Z" fill="white"/>
<path d="M270.093 355.364C270.465 354.907 270.655 354.411 270.636 354.03C271.437 353.602 272.448 353.792 273.029 354.526C273.687 355.355 273.554 356.555 272.724 357.212C271.895 357.87 270.693 357.736 270.036 356.907C269.778 356.583 269.645 356.202 269.626 355.812C269.788 355.688 269.95 355.545 270.093 355.364Z" fill="white"/>
<path d="M270.913 359.127C271.504 359.137 272.009 358.975 272.295 358.717C273.125 359.079 273.611 359.984 273.401 360.889C273.163 361.918 272.143 362.566 271.113 362.328C270.083 362.09 269.435 361.07 269.673 360.042C269.769 359.632 269.988 359.298 270.274 359.041C270.474 359.089 270.684 359.127 270.913 359.127Z" fill="white"/>
<path d="M268.377 362.175C268.739 362.642 269.187 362.938 269.559 363.004C269.797 363.871 269.387 364.814 268.548 365.224C267.595 365.681 266.451 365.281 265.993 364.328C265.536 363.376 265.936 362.233 266.89 361.775C267.261 361.594 267.671 361.556 268.053 361.623C268.138 361.804 268.243 361.994 268.386 362.175H268.377Z" fill="white"/>
<path d="M263.839 361.737C263.696 362.309 263.743 362.842 263.934 363.176C263.4 363.9 262.409 364.176 261.57 363.766C260.616 363.309 260.216 362.166 260.673 361.213C261.131 360.261 262.275 359.861 263.229 360.318C263.6 360.499 263.886 360.785 264.077 361.128C263.982 361.309 263.905 361.509 263.848 361.737H263.839Z" fill="white"/>
<path d="M262.771 354.783C262.294 354.545 261.818 354.478 261.493 354.573C260.959 353.964 260.921 353.04 261.446 352.373C262.037 351.63 263.124 351.506 263.867 352.097C264.611 352.687 264.735 353.773 264.144 354.516C263.915 354.812 263.6 355.002 263.267 355.097C263.124 354.983 262.962 354.869 262.78 354.773L262.771 354.783Z" fill="white"/>
<path d="M261.579 358.47C261.093 358.689 260.75 359.022 260.616 359.337C259.806 359.375 259.053 358.822 258.872 358.003C258.662 357.079 259.243 356.155 260.168 355.945C261.093 355.736 262.018 356.317 262.227 357.241C262.313 357.603 262.266 357.965 262.132 358.289C261.951 358.327 261.77 358.384 261.579 358.47Z" fill="white"/>
<path d="M281.352 367.644C281.228 367.063 280.952 366.605 280.647 366.386C280.809 365.5 281.591 364.824 282.525 364.824C283.583 364.824 284.432 365.681 284.432 366.729C284.432 367.777 283.574 368.634 282.525 368.634C282.105 368.634 281.724 368.501 281.409 368.272C281.409 368.072 281.4 367.853 281.352 367.625V367.644Z" fill="#F8F5DE"/>
<path d="M284.708 369.454C285.08 368.996 285.271 368.501 285.252 368.12C286.052 367.691 287.063 367.882 287.645 368.615C288.302 369.444 288.169 370.645 287.34 371.302C286.51 371.959 285.309 371.826 284.651 370.997C284.394 370.673 284.26 370.292 284.241 369.901C284.403 369.778 284.565 369.635 284.708 369.454Z" fill="#F8F5DE"/>
<path d="M285.528 373.217C286.119 373.226 286.624 373.064 286.911 372.807C287.74 373.169 288.226 374.074 288.016 374.979C287.778 376.008 286.758 376.656 285.728 376.418C284.699 376.179 284.05 375.16 284.289 374.131C284.384 373.722 284.603 373.388 284.889 373.131C285.09 373.179 285.299 373.217 285.528 373.217Z" fill="#F8F5DE"/>
<path d="M282.992 376.265C283.354 376.732 283.802 377.027 284.174 377.094C284.413 377.961 284.003 378.904 283.164 379.314C282.21 379.771 281.066 379.371 280.609 378.418C280.151 377.465 280.551 376.322 281.505 375.865C281.877 375.684 282.287 375.646 282.668 375.713C282.754 375.894 282.859 376.084 283.002 376.265H282.992Z" fill="#F8F5DE"/>
<path d="M278.454 375.827C278.311 376.398 278.359 376.932 278.549 377.265C278.015 377.989 277.024 378.266 276.185 377.856C275.232 377.399 274.831 376.256 275.289 375.303C275.746 374.35 276.89 373.95 277.844 374.407C278.216 374.588 278.502 374.874 278.692 375.217C278.597 375.398 278.521 375.598 278.464 375.827H278.454Z" fill="#F8F5DE"/>
<path d="M277.396 368.873C276.919 368.634 276.442 368.568 276.118 368.663C275.584 368.053 275.546 367.129 276.071 366.462C276.662 365.719 277.748 365.596 278.492 366.186C279.236 366.777 279.36 367.863 278.769 368.606C278.54 368.901 278.225 369.092 277.892 369.187C277.749 369.073 277.586 368.958 277.405 368.863L277.396 368.873Z" fill="#F8F5DE"/>
<path d="M276.195 372.559C275.708 372.778 275.365 373.112 275.232 373.426C274.421 373.464 273.668 372.912 273.487 372.093C273.277 371.168 273.859 370.244 274.783 370.035C275.708 369.825 276.633 370.406 276.843 371.33C276.929 371.692 276.881 372.054 276.747 372.378C276.566 372.416 276.385 372.474 276.195 372.559Z" fill="#F8F5DE"/>
<path d="M307.094 339.465C306.97 338.883 306.693 338.426 306.388 338.207C306.55 337.321 307.332 336.645 308.266 336.645C309.324 336.645 310.173 337.502 310.173 338.55C310.173 339.607 309.315 340.455 308.266 340.455C307.847 340.455 307.465 340.322 307.151 340.093C307.151 339.893 307.141 339.674 307.094 339.445V339.465Z" fill="white"/>
<path d="M310.449 341.275C310.821 340.817 311.012 340.322 310.993 339.941C311.794 339.512 312.804 339.703 313.386 340.436C314.044 341.265 313.91 342.465 313.081 343.123C312.251 343.78 311.05 343.647 310.392 342.818C310.135 342.494 310.001 342.113 309.982 341.722C310.144 341.598 310.306 341.456 310.449 341.275Z" fill="white"/>
<path d="M311.269 345.037C311.86 345.047 312.366 344.885 312.652 344.628C313.481 344.99 313.967 345.895 313.758 346.8C313.519 347.829 312.499 348.477 311.47 348.238C310.44 348 309.792 346.981 310.03 345.952C310.125 345.542 310.345 345.209 310.631 344.952C310.831 344.999 311.041 345.037 311.269 345.037Z" fill="white"/>
<path d="M308.733 348.086C309.096 348.553 309.544 348.848 309.916 348.915C310.154 349.782 309.744 350.725 308.905 351.134C307.952 351.592 306.808 351.192 306.35 350.239C305.892 349.286 306.293 348.143 307.246 347.686C307.618 347.505 308.028 347.467 308.409 347.533C308.495 347.714 308.6 347.905 308.743 348.086H308.733Z" fill="white"/>
<path d="M304.195 347.648C304.052 348.219 304.1 348.753 304.291 349.086C303.757 349.81 302.765 350.086 301.926 349.677C300.973 349.22 300.572 348.076 301.03 347.124C301.488 346.171 302.632 345.771 303.585 346.228C303.957 346.409 304.243 346.695 304.434 347.038C304.338 347.219 304.262 347.419 304.205 347.648H304.195Z" fill="white"/>
<path d="M303.137 340.703C302.66 340.465 302.184 340.398 301.86 340.493C301.326 339.884 301.287 338.96 301.812 338.293C302.403 337.55 303.49 337.426 304.233 338.017C304.977 338.607 305.101 339.693 304.51 340.436C304.281 340.732 303.966 340.922 303.633 341.017C303.49 340.903 303.328 340.789 303.147 340.693L303.137 340.703Z" fill="white"/>
<path d="M301.936 344.38C301.45 344.599 301.106 344.933 300.973 345.247C300.162 345.285 299.409 344.733 299.228 343.913C299.018 342.989 299.6 342.065 300.525 341.856C301.45 341.646 302.374 342.227 302.584 343.151C302.67 343.513 302.622 343.875 302.489 344.199C302.308 344.237 302.126 344.294 301.936 344.38Z" fill="white"/>
<path d="M292.478 353.554C292.354 352.973 292.078 352.516 291.773 352.297C291.935 351.411 292.717 350.734 293.651 350.734C294.709 350.734 295.558 351.592 295.558 352.64C295.558 353.697 294.7 354.545 293.651 354.545C293.231 354.545 292.85 354.411 292.535 354.183C292.535 353.983 292.526 353.764 292.478 353.535V353.554Z" fill="#F8F5DE"/>
<path d="M295.834 355.364C296.206 354.907 296.397 354.411 296.378 354.03C297.178 353.602 298.189 353.792 298.771 354.526C299.428 355.355 299.295 356.555 298.465 357.212C297.636 357.87 296.435 357.736 295.777 356.907C295.52 356.583 295.386 356.202 295.367 355.812C295.529 355.688 295.691 355.545 295.834 355.364Z" fill="#F8F5DE"/>
<path d="M296.654 359.127C297.245 359.137 297.75 358.975 298.036 358.717C298.866 359.079 299.352 359.984 299.142 360.889C298.904 361.918 297.884 362.566 296.854 362.328C295.825 362.09 295.176 361.07 295.415 360.042C295.51 359.632 295.729 359.298 296.015 359.041C296.215 359.089 296.425 359.127 296.654 359.127Z" fill="#F8F5DE"/>
<path d="M294.118 362.175C294.48 362.642 294.928 362.938 295.3 363.004C295.539 363.871 295.129 364.814 294.29 365.224C293.336 365.681 292.192 365.281 291.735 364.328C291.277 363.376 291.677 362.233 292.631 361.775C293.003 361.594 293.413 361.556 293.794 361.623C293.88 361.804 293.985 361.994 294.128 362.175H294.118Z" fill="#F8F5DE"/>
<path d="M289.58 361.737C289.437 362.309 289.485 362.842 289.675 363.176C289.141 363.9 288.15 364.176 287.311 363.766C286.358 363.309 285.957 362.166 286.415 361.213C286.872 360.261 288.016 359.861 288.97 360.318C289.342 360.499 289.628 360.785 289.818 361.128C289.723 361.309 289.647 361.509 289.59 361.737H289.58Z" fill="#F8F5DE"/>
<path d="M288.522 354.783C288.045 354.545 287.568 354.478 287.244 354.573C286.71 353.964 286.672 353.04 287.196 352.373C287.788 351.63 288.874 351.506 289.618 352.097C290.362 352.687 290.486 353.773 289.895 354.516C289.666 354.812 289.351 355.002 289.017 355.097C288.874 354.983 288.712 354.869 288.531 354.773L288.522 354.783Z" fill="#F8F5DE"/>
<path d="M287.32 358.47C286.834 358.689 286.491 359.022 286.358 359.337C285.547 359.375 284.794 358.822 284.613 358.003C284.403 357.079 284.985 356.155 285.909 355.945C286.834 355.736 287.759 356.317 287.969 357.241C288.055 357.603 288.007 357.965 287.873 358.289C287.692 358.327 287.511 358.384 287.32 358.47Z" fill="#F8F5DE"/>
<path d="M307.094 367.644C306.97 367.063 306.693 366.605 306.388 366.386C306.55 365.5 307.332 364.824 308.266 364.824C309.324 364.824 310.173 365.681 310.173 366.729C310.173 367.787 309.315 368.634 308.266 368.634C307.847 368.634 307.465 368.501 307.151 368.272C307.151 368.072 307.141 367.853 307.094 367.625V367.644Z" fill="white"/>
<path d="M310.449 369.454C310.821 368.996 311.012 368.501 310.993 368.12C311.794 367.691 312.804 367.882 313.386 368.615C314.044 369.444 313.91 370.645 313.081 371.302C312.251 371.959 311.05 371.826 310.392 370.997C310.135 370.673 310.001 370.292 309.982 369.901C310.144 369.778 310.306 369.635 310.449 369.454Z" fill="white"/>
<path d="M311.269 373.217C311.86 373.226 312.366 373.064 312.652 372.807C313.481 373.169 313.967 374.074 313.758 374.979C313.519 376.008 312.499 376.656 311.47 376.418C310.44 376.179 309.792 375.16 310.03 374.131C310.125 373.722 310.345 373.388 310.631 373.131C310.831 373.179 311.041 373.217 311.269 373.217Z" fill="white"/>
<path d="M308.733 376.265C309.096 376.732 309.544 377.027 309.916 377.094C310.154 377.961 309.744 378.904 308.905 379.314C307.952 379.771 306.808 379.371 306.35 378.418C305.892 377.465 306.293 376.322 307.246 375.865C307.618 375.684 308.028 375.646 308.409 375.713C308.495 375.894 308.6 376.084 308.743 376.265H308.733Z" fill="white"/>
<path d="M304.195 375.827C304.052 376.398 304.1 376.932 304.291 377.265C303.757 377.989 302.765 378.266 301.926 377.856C300.973 377.399 300.572 376.256 301.03 375.303C301.488 374.35 302.632 373.95 303.585 374.407C303.957 374.588 304.243 374.874 304.434 375.217C304.338 375.398 304.262 375.598 304.205 375.827H304.195Z" fill="white"/>
<path d="M303.137 368.873C302.66 368.634 302.184 368.568 301.86 368.663C301.326 368.053 301.287 367.129 301.812 366.462C302.403 365.719 303.49 365.596 304.233 366.186C304.977 366.777 305.101 367.863 304.51 368.606C304.281 368.901 303.966 369.092 303.633 369.187C303.49 369.073 303.328 368.958 303.147 368.863L303.137 368.873Z" fill="white"/>
<path d="M301.936 372.559C301.45 372.778 301.106 373.112 300.973 373.426C300.162 373.464 299.409 372.912 299.228 372.093C299.018 371.168 299.6 370.244 300.525 370.035C301.45 369.825 302.374 370.406 302.584 371.33C302.67 371.692 302.622 372.054 302.489 372.378C302.308 372.416 302.126 372.474 301.936 372.559Z" fill="white"/>
<path d="M332.854 339.465C332.73 338.883 332.454 338.426 332.148 338.207C332.311 337.321 333.092 336.645 334.027 336.645C335.085 336.645 335.933 337.502 335.933 338.55C335.933 339.607 335.075 340.455 334.027 340.455C333.607 340.455 333.226 340.322 332.911 340.093C332.911 339.893 332.902 339.674 332.854 339.445V339.465Z" fill="#F8F5DE"/>
<path d="M336.21 341.275C336.582 340.817 336.772 340.322 336.753 339.941C337.554 339.512 338.565 339.703 339.146 340.436C339.804 341.265 339.671 342.465 338.841 343.123C338.012 343.78 336.81 343.647 336.153 342.818C335.895 342.494 335.762 342.113 335.743 341.722C335.905 341.598 336.067 341.456 336.21 341.275Z" fill="#F8F5DE"/>
<path d="M337.03 345.037C337.621 345.047 338.126 344.885 338.412 344.628C339.242 344.99 339.728 345.895 339.518 346.8C339.28 347.829 338.26 348.477 337.23 348.238C336.2 348 335.552 346.981 335.79 345.952C335.886 345.542 336.105 345.209 336.391 344.952C336.591 344.999 336.801 345.037 337.03 345.037Z" fill="#F8F5DE"/>
<path d="M334.494 348.086C334.856 348.553 335.304 348.848 335.676 348.915C335.914 349.782 335.504 350.725 334.665 351.134C333.712 351.592 332.568 351.192 332.11 350.239C331.653 349.286 332.053 348.143 333.006 347.686C333.378 347.505 333.788 347.467 334.17 347.533C334.255 347.714 334.36 347.905 334.503 348.086H334.494Z" fill="#F8F5DE"/>
<path d="M329.956 347.648C329.813 348.219 329.86 348.753 330.051 349.086C329.517 349.81 328.526 350.086 327.687 349.677C326.733 349.22 326.333 348.076 326.79 347.124C327.248 346.171 328.392 345.771 329.345 346.228C329.717 346.409 330.003 346.695 330.194 347.038C330.099 347.219 330.022 347.419 329.965 347.648H329.956Z" fill="#F8F5DE"/>
<path d="M328.897 340.703C328.421 340.465 327.944 340.398 327.62 340.493C327.086 339.884 327.048 338.96 327.572 338.293C328.163 337.55 329.25 337.426 329.994 338.017C330.737 338.607 330.861 339.693 330.27 340.436C330.041 340.732 329.727 340.922 329.393 341.017C329.25 340.903 329.088 340.789 328.907 340.693L328.897 340.703Z" fill="#F8F5DE"/>
<path d="M327.696 344.38C327.21 344.599 326.867 344.933 326.733 345.247C325.923 345.285 325.17 344.733 324.989 343.913C324.779 342.989 325.36 342.065 326.285 341.856C327.21 341.646 328.135 342.227 328.344 343.151C328.43 343.513 328.383 343.875 328.249 344.199C328.068 344.237 327.887 344.294 327.696 344.38Z" fill="#F8F5DE"/>
<path d="M318.239 353.554C318.115 352.973 317.838 352.516 317.533 352.297C317.695 351.411 318.477 350.734 319.411 350.734C320.469 350.734 321.318 351.592 321.318 352.64C321.318 353.687 320.46 354.545 319.411 354.545C318.992 354.545 318.61 354.411 318.296 354.183C318.296 353.983 318.286 353.764 318.239 353.535V353.554Z" fill="white"/>
<path d="M321.594 355.364C321.966 354.907 322.157 354.411 322.138 354.03C322.939 353.602 323.949 353.792 324.531 354.526C325.189 355.355 325.055 356.555 324.226 357.212C323.396 357.87 322.195 357.736 321.537 356.907C321.28 356.583 321.146 356.202 321.127 355.812C321.289 355.688 321.451 355.545 321.594 355.364Z" fill="white"/>
<path d="M322.414 359.127C323.006 359.137 323.511 358.975 323.797 358.717C324.626 359.079 325.112 359.984 324.903 360.889C324.664 361.918 323.644 362.566 322.615 362.328C321.585 362.09 320.937 361.07 321.175 360.042C321.27 359.632 321.49 359.298 321.776 359.041C321.976 359.089 322.186 359.127 322.414 359.127Z" fill="white"/>
<path d="M319.878 362.175C320.241 362.642 320.689 362.938 321.061 363.004C321.299 363.871 320.889 364.814 320.05 365.224C319.097 365.681 317.953 365.281 317.495 364.328C317.037 363.376 317.438 362.233 318.391 361.775C318.763 361.594 319.173 361.556 319.554 361.623C319.64 361.804 319.745 361.994 319.888 362.175H319.878Z" fill="white"/>
<path d="M315.34 361.737C315.197 362.309 315.245 362.842 315.436 363.176C314.902 363.9 313.91 364.176 313.071 363.766C312.118 363.309 311.717 362.166 312.175 361.213C312.633 360.261 313.777 359.861 314.73 360.318C315.102 360.499 315.388 360.785 315.579 361.128C315.483 361.309 315.407 361.509 315.35 361.737H315.34Z" fill="white"/>
<path d="M314.273 354.783C313.796 354.545 313.319 354.478 312.995 354.573C312.461 353.964 312.423 353.04 312.947 352.373C313.538 351.63 314.625 351.506 315.369 352.097C316.113 352.687 316.236 353.773 315.645 354.516C315.417 354.812 315.102 355.002 314.768 355.097C314.625 354.983 314.463 354.869 314.282 354.773L314.273 354.783Z" fill="white"/>
<path d="M313.081 358.47C312.595 358.689 312.251 359.022 312.118 359.337C311.308 359.375 310.554 358.822 310.373 358.003C310.163 357.079 310.745 356.155 311.67 355.945C312.595 355.736 313.519 356.317 313.729 357.241C313.815 357.603 313.767 357.965 313.634 358.289C313.453 358.327 313.271 358.384 313.081 358.47Z" fill="white"/>
<path d="M332.854 367.644C332.73 367.063 332.454 366.605 332.148 366.386C332.311 365.5 333.092 364.824 334.027 364.824C335.085 364.824 335.933 365.681 335.933 366.729C335.933 367.787 335.075 368.634 334.027 368.634C333.607 368.634 333.226 368.501 332.911 368.272C332.911 368.072 332.902 367.853 332.854 367.625V367.644Z" fill="#F8F5DE"/>
<path d="M336.21 369.454C336.582 368.996 336.772 368.501 336.753 368.12C337.554 367.691 338.565 367.882 339.146 368.615C339.804 369.444 339.671 370.645 338.841 371.302C338.012 371.959 336.81 371.826 336.153 370.997C335.895 370.673 335.762 370.292 335.743 369.901C335.905 369.778 336.067 369.635 336.21 369.454Z" fill="#F8F5DE"/>
<path d="M337.03 373.217C337.621 373.226 338.126 373.064 338.412 372.807C339.242 373.169 339.728 374.074 339.518 374.979C339.28 376.008 338.26 376.656 337.23 376.418C336.2 376.179 335.552 375.16 335.79 374.131C335.886 373.722 336.105 373.388 336.391 373.131C336.591 373.179 336.801 373.217 337.03 373.217Z" fill="#F8F5DE"/>
<path d="M334.494 376.265C334.856 376.732 335.304 377.027 335.676 377.094C335.914 377.961 335.504 378.904 334.665 379.314C333.712 379.771 332.568 379.371 332.11 378.418C331.653 377.465 332.053 376.322 333.006 375.865C333.378 375.684 333.788 375.646 334.17 375.713C334.255 375.894 334.36 376.084 334.503 376.265H334.494Z" fill="#F8F5DE"/>
<path d="M329.956 375.827C329.813 376.398 329.86 376.932 330.051 377.265C329.517 377.989 328.526 378.266 327.687 377.856C326.733 377.399 326.333 376.256 326.79 375.303C327.248 374.35 328.392 373.95 329.345 374.407C329.717 374.588 330.003 374.874 330.194 375.217C330.099 375.398 330.022 375.598 329.965 375.827H329.956Z" fill="#F8F5DE"/>
<path d="M328.897 368.873C328.421 368.634 327.944 368.568 327.62 368.663C327.086 368.053 327.048 367.129 327.572 366.462C328.163 365.719 329.25 365.596 329.994 366.186C330.737 366.777 330.861 367.863 330.27 368.606C330.041 368.901 329.727 369.092 329.393 369.187C329.25 369.073 329.088 368.958 328.907 368.863L328.897 368.873Z" fill="#F8F5DE"/>
<path d="M327.696 372.559C327.21 372.778 326.867 373.112 326.733 373.426C325.923 373.464 325.17 372.912 324.989 372.093C324.779 371.168 325.36 370.244 326.285 370.035C327.21 369.825 328.135 370.406 328.344 371.33C328.43 371.692 328.383 372.054 328.249 372.378C328.068 372.416 327.887 372.474 327.696 372.559Z" fill="#F8F5DE"/>
<path d="M64.4104 322.622C65.2971 322.593 69.0248 322.384 72.1519 319.373C75.4792 316.172 75.6889 312.143 75.7175 311.323C74.9167 311.323 71.0174 311.438 67.8235 314.572C64.5248 317.801 64.42 321.86 64.42 322.622H64.4104Z" fill="#FDFDFC"/>
<path d="M64.5153 322.622C63.6287 322.593 59.9009 322.384 56.7738 319.373C53.4465 316.172 53.2368 312.143 53.2082 311.323C54.009 311.323 57.9084 311.438 61.1022 314.572C64.4009 317.801 64.5058 321.86 64.5058 322.622H64.5153Z" fill="#FDFDFC"/>
<path d="M64.4104 333.92C65.2971 333.892 69.0248 333.682 72.1519 330.672C75.4792 327.471 75.6889 323.441 75.7175 322.622C74.9167 322.622 71.0174 322.736 67.8235 325.87C64.5248 329.1 64.42 333.158 64.42 333.92H64.4104Z" fill="#F8F5DE"/>
<path d="M64.5153 333.92C63.6287 333.892 59.9009 333.682 56.7738 330.672C53.4465 327.471 53.2368 323.441 53.2082 322.622C54.009 322.622 57.9084 322.736 61.1022 325.87C64.4009 329.1 64.5058 333.158 64.5058 333.92H64.5153Z" fill="#F8F5DE"/>
<path d="M64.9443 322.622H63.9909V381.914H64.9443V322.622Z" fill="#F5F2DE"/>
<path d="M92.6019 301.845C93.4885 301.816 97.2163 301.607 100.343 298.596C103.671 295.395 103.88 291.366 103.909 290.546C103.108 290.546 99.2088 290.661 96.015 293.795C92.7163 297.024 92.6114 301.083 92.6114 301.845H92.6019Z" fill="#FDFDFC"/>
<path d="M92.7068 301.845C91.8201 301.816 88.0924 301.607 84.9653 298.596C81.638 295.395 81.4283 291.366 81.3997 290.546C82.2005 290.546 86.0998 290.661 89.2937 293.795C92.5924 297.024 92.6972 301.083 92.6972 301.845H92.7068Z" fill="#FDFDFC"/>
<path d="M92.6019 313.143C93.4885 313.114 97.2163 312.905 100.343 309.895C103.671 306.694 103.88 302.664 103.909 301.845C103.108 301.845 99.2088 301.959 96.015 305.093C92.7163 308.323 92.6114 312.381 92.6114 313.143H92.6019Z" fill="#F8F5DE"/>
<path d="M92.7068 313.143C91.8201 313.114 88.0924 312.905 84.9653 309.895C81.638 306.694 81.4283 302.664 81.3997 301.845C82.2005 301.845 86.0998 301.959 89.2937 305.093C92.5924 308.323 92.6972 312.381 92.6972 313.143H92.7068Z" fill="#F8F5DE"/>
<path d="M93.1263 301.845H92.1729V311.733H93.1263V301.845Z" fill="#F5F2DE"/>
<path d="M36.2189 301.845C37.1056 301.816 40.8333 301.607 43.9604 298.596C47.2877 295.395 47.4974 291.366 47.526 290.546C46.7252 290.546 42.8259 290.661 39.6321 293.795C36.3334 297.024 36.2285 301.083 36.2285 301.845H36.2189Z" fill="#FDFDFC"/>
<path d="M36.3334 301.845C35.4467 301.816 31.719 301.607 28.5919 298.596C25.2646 295.395 25.0549 291.366 25.0263 290.546C25.8271 290.546 29.7264 290.661 32.9202 293.795C36.2189 297.024 36.3238 301.083 36.3238 301.845H36.3334Z" fill="#FDFDFC"/>
<path d="M36.2189 313.143C37.1056 313.114 40.8333 312.905 43.9604 309.895C47.2877 306.694 47.4974 302.664 47.526 301.845C46.7252 301.845 42.8259 301.959 39.6321 305.093C36.3334 308.323 36.2285 312.381 36.2285 313.143H36.2189Z" fill="#F8F5DE"/>
<path d="M36.3334 313.143C35.4467 313.114 31.719 312.905 28.5919 309.895C25.2646 306.694 25.0549 302.664 25.0263 301.845C25.8271 301.845 29.7264 301.959 32.9202 305.093C36.2189 308.323 36.3238 312.381 36.3238 313.143H36.3334Z" fill="#F8F5DE"/>
<path d="M36.7528 301.845H35.7995V311.733H36.7528V301.845Z" fill="#F5F2DE"/>
<path d="M345 333.987H0V334.939H345V333.987Z" fill="#F5F2DE"/>
<path d="M116.875 334.463H115.922V382H116.875V334.463Z" fill="#F5F2DE"/>
<path d="M163.686 334.463H162.733V382H163.686V334.463Z" fill="#F5F2DE"/>
<path d="M212.966 334.463H212.013V382H212.966V334.463Z" fill="#F5F2DE"/>
<path d="M219.135 250.04L222.328 247.315L153.38 137.057L153.342 137.076L142.74 120.128L139.299 122.272L149.9 139.229L149.852 139.257L219.135 250.04Z" fill="#C98B45"/>
<path d="M282.105 57.5015L280.532 58.4827C279.989 58.8161 279.541 59.0733 279.179 59.2448C278.816 59.4163 278.502 59.4925 278.225 59.4735C277.949 59.4544 277.71 59.3496 277.482 59.1496C277.262 58.9495 277.024 58.6447 276.776 58.2445L268.663 45.2696L272.829 42.6688L270.932 39.6394L266.766 42.2402L263.019 36.248L240.357 0H235.628L259.453 38.0866L259.415 38.1152L263.333 44.3836L259.777 46.6033L261.675 49.6327L265.231 47.413L273.544 60.7119C274.154 61.6836 274.736 62.4076 275.289 62.8839C275.851 63.3602 276.423 63.6365 277.014 63.7127C277.605 63.7889 278.263 63.6937 278.969 63.4174C279.674 63.1411 280.475 62.7315 281.371 62.1694L284.003 60.5309L282.105 57.5015Z" fill="#C98B45"/>
</g>
<defs>
<filter id="filter0_d_1258_1457" x="11.8357" y="0" width="321.329" height="262.908" filterUnits="userSpaceOnUse" color-interpolation-filters="sRGB">
<feFlood flood-opacity="0" result="BackgroundImageFix"/>
<feColorMatrix in="SourceAlpha" type="matrix" values="0 0 0 0 0 0 0 0 0 0 0 0 0 0 0 0 0 0 127 0" result="hardAlpha"/>
<feOffset dy="4"/>
<feGaussianBlur stdDeviation="2"/>
<feComposite in2="hardAlpha" operator="out"/>
<feColorMatrix type="matrix" values="0 0 0 0 0 0 0 0 0 0 0 0 0 0 0 0 0 0 0.25 0"/>
<feBlend mode="normal" in2="BackgroundImageFix" result="effect1_dropShadow_1258_1457"/>
<feBlend mode="normal" in="SourceGraphic" in2="effect1_dropShadow_1258_1457" result="shape"/>
</filter>
<clipPath id="clip0_1258_1457">
<rect width="345" height="382" fill="white"/>
</clipPath>
</defs>
</svg>
